<svg xmlns="http://www.w3.org/2000/svg" width="24" height="24" viewBox="0 0 24 24">
    <g fill="none" fill-rule="evenodd" stroke="#000" stroke-width=".9">
        <path stroke-linecap="round" d="M8.711 16.5c-.403.43-.777 1.254-1.123 2.473A1.2 1.2 0 0 0 8.743 20.5H16.5"/>
        <path stroke-linecap="square" d="M11.162 16.5h6.426a.41.41 0 0 0 .398-.51l-.227-.852a1.849 1.849 0 0 0-1.793-1.361h-5.372a.822.822 0 0 1-.806-.64C9.03 9.715 8.47 7.189 8.107 5.56c-.31-1.39-1.075-2.077-2.295-2.059a.818.818 0 0 0-.795.976L7.393 15.85a.822.822 0 0 0 .808.649h.714"/>
    </g>
</svg>
