<svg xmlns="http://www.w3.org/2000/svg" width="24" height="24" viewBox="0 0 24 24">
    <g fill="none" fill-rule="evenodd">
        <path d="M0 0h24v24H0z"/>
        <path fill="#000" fill-rule="nonzero" d="M18.71 20c.26 0 .468-.042.624-.125.156-.083.27-.166.343-.25.073-.082.14-.197.203-.342.062-.146.083-.333.062-.562l-1.31-7.86c-.052-.509-.28-.945-.686-1.31-.405-.363-.863-.545-1.372-.545h-1.108V7.68c0-.51-.085-.987-.257-1.434a3.618 3.618 0 0 0-.717-1.17A3.352 3.352 0 0 0 11.989 4a3.373 3.373 0 0 0-2.51 1.076 3.656 3.656 0 0 0-.734 1.17A3.867 3.867 0 0 0 8.48 7.68v1.326h-1.2c-.51 0-.968.182-1.373.546-.405.364-.634.79-.686 1.278l-1.2 7.876a1.39 1.39 0 0 0 .015.553.942.942 0 0 0 .57.655c.14.057.303.086.49.086H18.71zM14.468 9.006h-4.99V7.68c0-.738.234-1.37.702-1.894.468-.525 1.07-.788 1.809-.788.738 0 1.336.263 1.793.788.458.525.686 1.156.686 1.894v1.326zm-9.31 9.996a.197.197 0 0 1-.117-.039c-.036-.026-.049-.07-.038-.133l1.2-7.86c.031-.26.154-.485.367-.678.213-.192.45-.288.71-.288h1.2v1.138a1.15 1.15 0 0 0-.359.367.914.914 0 0 0-.14.491c0 .28.096.517.289.71a.964.964 0 0 0 .71.288c.28 0 .516-.096.709-.288a.964.964 0 0 0 .288-.71.914.914 0 0 0-.14-.491 1.15 1.15 0 0 0-.359-.367v-1.138h4.99v1.138a1.15 1.15 0 0 0-.358.367.914.914 0 0 0-.14.491c0 .28.096.517.288.71a.964.964 0 0 0 .71.288c.28 0 .517-.096.709-.288a.964.964 0 0 0 .288-.71.914.914 0 0 0-.14-.491 1.15 1.15 0 0 0-.359-.367v-1.138h1.108c.26 0 .496.096.71.288.212.193.334.43.366.71l1.294 7.844c.01.031 0 .062-.031.094-.031.03-.083.046-.156.046l-13.599.016z"/>
    </g>
</svg>
