<svg xmlns="http://www.w3.org/2000/svg" width="48" height="48" viewBox="0 0 48 48">
    <g fill="none" fill-rule="evenodd">
        <g>
            <path fill="#FFF" d="M0 0H360V1359H0z" transform="translate(-20 -134)"/>
            <path fill="#F8F9FC" d="M42 173H44V433H42z" transform="translate(-20 -134)"/>
            <g transform="translate(-20 -134) translate(20 134)">
                <rect width="48" height="48" fill="#F8F9FC" rx="24"/>
                <g>
                    <g>
                        <path fill="#66E2FF" d="M7.733 0h11.2c2.21 0 4 1.79 4 4v17.333c0 2.21-1.79 4-4 4h-11.2c-2.209 0-4-1.79-4-4V4c0-2.21 1.791-4 4-4z" transform="translate(8 7.917) translate(4.667 3.299)"/>
                        <path fill="#FFF" d="M7.867 2.111H18.8c1.105 0 2 .896 2 2V26.39H5.867V4.11c0-1.104.895-2 2-2z" transform="translate(8 7.917) translate(4.667 3.299)"/>
                        <path fill="#00256C" d="M2 12.139h17.2v13.194H2c-1.105 0-2-.895-2-2V14.14c0-1.105.895-2 2-2z" transform="translate(8 7.917) translate(4.667 3.299)"/>
                        <path stroke="#00256C" stroke-width="2" d="M8 12.475v-1.96c0-.56.318-1.015.711-1.015h4.978c.393 0 .711.454.711 1.014v2.153" transform="translate(8 7.917) translate(4.667 3.299)"/>
                    </g>
                    <path d="M0 0H32V31.667H0z" opacity=".278" transform="translate(8 7.917)"/>
                </g>
            </g>
        </g>
    </g>
</svg>
