<?xml version="1.0" encoding="utf-8"?>
<!-- Generator: Adobe Illustrator 24.0.2, SVG Export Plug-In . SVG Version: 6.00 Build 0)  -->
<svg version="1.1" id="Layer_1" xmlns="http://www.w3.org/2000/svg" xmlns:xlink="http://www.w3.org/1999/xlink" x="0px" y="0px"
	 viewBox="0 0 10 10" style="enable-background:new 0 0 10 10;" xml:space="preserve">
<style type="text/css">
	.st0{enable-background:new    ;}
	.st1{fill:#0064DE;}
</style>
<g>
	<g class="st0">
		<path class="st1" d="M4,7.4L3,6.6c0.3-0.4,0.7-0.7,1-1.1c0.1-0.1,0.2-0.2,0.3-0.3c-0.1,0-0.4-0.1-1-0.2C2.9,4.9,2.6,4.9,2.5,4.8
			l0.4-1.2c0.6,0.2,1.1,0.5,1.6,0.8C4.4,3.7,4.4,3.1,4.4,2.6h1.2c0,0.3-0.1,0.9-0.2,1.8c0.1,0,0.3-0.1,0.6-0.3
			C6.4,4,6.8,3.8,7.1,3.7l0.4,1.2C7,5,6.4,5.2,5.7,5.3l0.8,0.9c0.2,0.2,0.3,0.3,0.4,0.5l-1,0.7L5,5.8C4.7,6.3,4.4,6.8,4,7.4z"/>
	</g>
</g>
</svg>
