<svg xmlns="http://www.w3.org/2000/svg" width="64" height="64" viewBox="0 0 64 64">
    <path fill="#00256C" fill-rule="evenodd" d="M40.727 5.647c4.01 0 7.273 3.111 7.273 6.935v8.322c0 .766-.652 1.387-1.455 1.387-.802 0-1.369-.621-1.369-1.387v-8.322c0-2.294-2.043-4.111-4.449-4.111H23.273c-2.406 0-4.45 1.817-4.45 4.111v38.836c0 2.294 2.044 4.111 4.45 4.111h17.454c2.406 0 4.45-1.817 4.45-4.111V30.613c0-.766.566-1.387 1.368-1.387.803 0 1.455.621 1.455 1.387v20.805c0 3.824-3.263 6.935-7.273 6.935H23.273c-4.01 0-7.273-3.111-7.273-6.935V12.582c0-3.824 3.263-6.935 7.273-6.935zM32 48.941a1.881 1.881 0 1 1 0 3.765 1.881 1.881 0 1 1 0-3.765z"/>
</svg>
