<svg xmlns="http://www.w3.org/2000/svg" width="64" height="64" viewBox="0 0 64 64">
    <path fill="#00256C" fill-rule="evenodd" d="M32 5.647c6.6 0 11.97 5.515 11.97 12.235v3.765h.579c3.459 0 6.275 3.065 6.275 6.588v2.966c0 .882-.703 1.598-1.57 1.598-.867 0-1.254-.716-1.254-1.598v-2.966c0-1.761-1.72-3.764-3.451-3.764H19.765c-1.73 0-3.765 2.003-3.765 3.764v23.53c0 1.761 2.035 3.764 3.765 3.764h24.784c1.73 0 3.451-2.003 3.451-3.764V42.38c0-.881.387-1.597 1.255-1.597.866 0 1.569.716 1.569 1.597v9.384c0 3.523-2.816 6.588-6.275 6.588H19.765c-3.46 0-6.589-3.065-6.589-6.588v-23.53c0-3.523 3.128-6.588 6.589-6.588v-3.765c0-6.72 5.634-12.235 12.235-12.235zm0 30.118a2.825 2.825 0 0 1 0 5.647 2.825 2.825 0 0 1 0-5.647zM32 8.47c-4.87 0-9.412 4.405-9.412 9.364v3.812h18.824v-3.812c0-4.96-4.541-9.364-9.412-9.364z"/>
</svg>
