<svg xmlns="http://www.w3.org/2000/svg" width="44" height="44" viewBox="0 0 44 44">
    <g fill="none" fill-rule="evenodd">
        <circle cx="22" cy="22" r="18" fill="#A9AAAB"/>
        <path fill="#FFF" d="M32.97 22.444c1.968 2.537 1.737 5.905-.665 8.036-.695.617-.946 1.124-.5 1.938.083.15.092.34.14.53-.714-.318-1.37-.795-2.067-.868-.694-.073-1.425.328-2.151.402-2.214.227-4.198-.39-5.833-1.903-3.11-2.877-2.666-7.288.932-9.646 3.199-2.095 7.89-1.397 10.144 1.51zm-7.494-7.116a6.733 6.733 0 0 1 1.403 3.56c-2.256.118-4.217.802-5.809 2.346-1.608 1.56-2.343 3.473-2.142 5.843-.881-.109-1.684-.23-2.492-.297-.278-.024-.61.01-.846.143-.784.443-1.535.942-2.426 1.499.163-.74.27-1.387.456-2.01.138-.457.074-.712-.347-1.01-2.707-1.911-3.848-4.772-2.994-7.716.79-2.725 2.73-4.377 5.366-5.238 3.599-1.175 7.642.023 9.83 2.88zm-1.654 8.07a.855.855 0 0 0-.85.87c.016.447.393.809.845.81a.842.842 0 0 0 .846-.805.846.846 0 0 0-.84-.876zm5.234.001a.84.84 0 0 0-.833.804.827.827 0 0 0 .823.869.82.82 0 0 0 .833-.798.835.835 0 0 0-.823-.875zm-7.141-6.469c-.557.01-1.027.485-1.017 1.025.01.56.471 1 1.043.992a.997.997 0 0 0 1.004-1.022 1.003 1.003 0 0 0-1.03-.995zm-6.416 0a1.01 1.01 0 0 0-1.05.977.998.998 0 0 0 .988 1.036c.566.014 1.042-.42 1.063-.972.02-.539-.446-1.024-1-1.04z"/>
    </g>
</svg>
