<svg xmlns="http://www.w3.org/2000/svg" width="44" height="44" viewBox="0 0 44 44">
    <g fill="none" fill-rule="evenodd">
        <circle cx="22" cy="22" r="18" fill="#A9AAAB"/>
        <path fill="#FFF" d="M22 12c6.617 0 12 4.369 12 9.738 0 2.15-.833 4.085-2.572 5.992-2.517 2.897-8.147 6.427-9.428 6.967-1.28.54-1.092-.344-1.04-.647l.172-1.027c.04-.307.082-.782-.039-1.085-.135-.334-.666-.508-1.057-.592C14.269 30.583 10 26.552 10 21.738 10 16.368 15.384 12 22 12zm-2.438 7.143h-.842l-.062.009a.234.234 0 0 0-.172.225v5.228l.008.062a.234.234 0 0 0 .226.172h.842l.062-.009a.233.233 0 0 0 .172-.225v-5.228l-.009-.062a.234.234 0 0 0-.225-.172zm5.793 0h-.841l-.062.009a.234.234 0 0 0-.172.225v3.106l-2.396-3.236-.009-.012-.01-.012-.026-.025-.009-.007-.018-.013-.01-.006-.014-.007-.013-.005-.008-.003-.014-.004-.008-.003-.007-.001-.006-.002h-.01l-.007-.002h-.011l-.856-.002-.062.009a.234.234 0 0 0-.172.225v5.228l.008.062a.234.234 0 0 0 .226.172h.841l.062-.009a.234.234 0 0 0 .172-.225V21.5l2.4 3.24.027.032.034.028.007.004.014.008a.086.086 0 0 0 .011.005l.012.005.003.002h.004l.015.006a.25.25 0 0 0 .064.009h.841l.063-.009a.233.233 0 0 0 .171-.225v-5.228l-.008-.062a.234.234 0 0 0-.226-.172zm-10.343 0h-.842l-.062.009a.234.234 0 0 0-.171.225v5.228l.008.06c.01.04.03.074.057.102.035.033.07.054.108.064l.06.008h3.363l.062-.009a.234.234 0 0 0 .171-.225v-.842l-.008-.062a.233.233 0 0 0-.225-.172h-2.287v-4.152l-.009-.062a.234.234 0 0 0-.225-.172zm14.992 0H26.64l-.061.008a.24.24 0 0 0-.103.06l-.005.005-.034.046-.023.055-.008.06v5.228l.008.06a.234.234 0 0 0 .165.166l.061.008h3.363l.062-.009a.234.234 0 0 0 .17-.225v-.842l-.007-.062a.233.233 0 0 0-.225-.172h-2.287v-.883h2.287l.062-.009a.234.234 0 0 0 .17-.225v-.842l-.007-.062a.233.233 0 0 0-.225-.172h-2.287v-.883h2.287l.062-.009a.233.233 0 0 0 .17-.225v-.842l-.007-.062a.233.233 0 0 0-.225-.172z"/>
    </g>
</svg>
