<svg xmlns="http://www.w3.org/2000/svg" xmlns:xlink="http://www.w3.org/1999/xlink" width="44" height="44" viewBox="0 0 44 44">
    <defs>
        <circle id="a" cx="22" cy="22" r="18"/>
        <path id="b" d="M0 0h15.8v16.215H0z"/>
    </defs>
    <g fill="none" fill-rule="evenodd">
        <g>
            <use fill="#E74133" xlink:href="#a"/>
            <use fill="#A9AAAB" xlink:href="#a"/>
        </g>
        <g transform="translate(14 14)">
            <mask id="c" fill="#fff">
                <use xlink:href="#b"/>
            </mask>
            <path fill="#FFF" d="M8.225 7.378v2.216h5.296c-.162 1.243-.576 2.153-1.207 2.792-.774.775-1.982 1.622-4.09 1.622-3.26 0-5.81-2.63-5.81-5.892 0-3.26 2.55-5.891 5.81-5.891 1.757 0 3.045.694 3.991 1.586l1.559-1.559C12.458.972 10.693 0 8.224 0 3.757 0 0 3.64 0 8.108s3.756 8.107 8.225 8.107c2.414 0 4.233-.793 5.657-2.27 1.46-1.46 1.919-3.522 1.919-5.18 0-.513-.037-.99-.118-1.387H8.225z" mask="url(#c)"/>
        </g>
    </g>
</svg>
