<svg xmlns="http://www.w3.org/2000/svg" width="44" height="44" viewBox="0 0 44 44">
    <g fill="none" fill-rule="evenodd">
        <circle cx="22.118" cy="22.118" r="17.618" fill="#FFF" stroke="#D9DBE1"/>
        <g fill="#A9AAAB">
            <path d="M20.9 30.674c-4.295.424-8.003-1.517-8.282-4.338-.28-2.82 2.978-5.45 7.273-5.874 4.296-.425 8.004 1.517 8.283 4.336.278 2.82-2.977 5.452-7.274 5.876m8.592-9.362c-.365-.11-.616-.184-.424-.664.414-1.042.457-1.942.008-2.583-.843-1.204-3.147-1.139-5.79-.033 0 0-.829.363-.617-.295.407-1.306.346-2.4-.287-3.032-1.433-1.434-5.244.054-8.513 3.322-2.448 2.447-3.87 5.042-3.87 7.285 0 4.291 5.504 6.9 10.887 6.9 7.057 0 11.751-4.1 11.751-7.355 0-1.967-1.656-3.083-3.145-3.545M27.899 11.294a6.864 6.864 0 0 1 6.28 2.165 6.865 6.865 0 0 1 1.437 6.719v.004a.993.993 0 0 1-1.892-.613 4.885 4.885 0 0 0-5.67-6.282.993.993 0 0 1-.414-1.944zm.478 3.498a3.344 3.344 0 0 1 3.882 4.302.856.856 0 0 1-1.627-.526l.04-.148a1.633 1.633 0 0 0-1.939-1.955.855.855 0 0 1-.356-1.673z"/>
            <path d="M21.33 22.632c-2.044-.532-4.355.487-5.243 2.288-.904 1.837-.03 3.876 2.035 4.543 2.14.69 4.661-.367 5.538-2.35.865-1.939-.215-3.934-2.33-4.481m-1.561 4.691c-.416.663-1.305.954-1.976.648-.66-.3-.855-1.071-.44-1.717.411-.644 1.27-.93 1.936-.652.673.287.888 1.052.48 1.721m1.369-1.757c-.15.258-.483.381-.743.274-.256-.105-.336-.393-.19-.645.149-.251.468-.374.724-.273.259.095.352.386.209.644"/>
        </g>
    </g>
</svg>
