<svg xmlns="http://www.w3.org/2000/svg" width="514" height="2100" viewBox="0 0 514 2100">
    <g fill="none" fill-rule="evenodd">
        <path fill="#F8F9FC" stroke="#D9DBE1" d="M257 .499c-28.095 0-56.204 15.263-82.963 41.078-29.615 28.57-57.584 70.063-82.067 117.973C37.66 265.83.5 403.688.5 501.96v1597.54h513V501.961c0-98.273-37.16-236.13-91.47-342.411-24.483-47.91-52.452-89.403-82.067-117.973C313.204 15.762 285.095.499 257 .499z"/>
        <g fill="#DEE1E9">
            <path d="M226.525 55.586l33.524 47.753s3.55 7.843-4.561 9.227h-27.11s-3.475.693-6.026-3.461c-2.548-4.152-5.327-9.228-5.327-9.228s-.926-3.692 0-10.38c.926-6.69 5.327-33.911 5.327-33.911s2.03-3.053 4.173 0M143.231.677l64.158 38.522s5.078 3.21 4.845 9.86c-.23 6.651-.46 30.499-.46 30.499s-2.077 8.484-10.386 3.438c-8.306-5.043-60.465-35.77-60.465-35.77s-3.46-1.836-3.693-4.817c-.23-2.981 0-39.899 0-39.899s2.09-4.084 6.001-1.833M34.598 55.492L.78 103.324s-3.58 7.856 4.6 9.242h27.35s3.504.694 6.074-3.467c2.57-4.158 5.376-9.243 5.376-9.243s.935-3.697 0-10.397c-.934-6.701-5.376-33.967-5.376-33.967s-2.045-3.057-4.206 0M117.461.677L53.426 39.199s-5.069 3.21-4.837 9.86c.23 6.651.46 30.499.46 30.499s2.073 8.484 10.366 3.438c8.293-5.043 60.35-35.77 60.35-35.77s3.456-1.836 3.685-4.817c.23-2.981 0-39.899 0-39.899s-2.086-4.084-5.989-1.833" transform="translate(126 100.904)"/>
        </g>
    </g>
</svg>
