<svg xmlns="http://www.w3.org/2000/svg" width="16" height="16" viewBox="0 0 16 16">
    <g fill="none" fill-rule="evenodd">
        <path d="M0 0h16v16H0z"/>
        <path fill="#0064DE" d="M11.275 12.053c.612 0 1.108-.496 1.108-1.106a1.107 1.107 0 1 0-2.217 0c0 .61.497 1.106 1.109 1.106zm-6.65 0c.612 0 1.108-.496 1.108-1.106a1.107 1.107 0 1 0-2.217 0c0 .61.497 1.106 1.109 1.106zm4.064-4.421h4.433V3.947c0-.814-.662-1.473-1.478-1.473H8.69v5.158zm-1.478 0V2.474H4.256c-.817 0-1.478.659-1.478 1.473v3.685H7.21zm4.581 5.894l1.33 1.106V15H2.778v-.368l1.33-1.106h-1.33c-.817 0-1.478-.66-1.478-1.473V3.947A2.951 2.951 0 0 1 4.256 1h7.388A2.951 2.951 0 0 1 14.6 3.947v8.106c0 .813-.662 1.473-1.478 1.473h-1.33z"/>
    </g>
</svg>
