<svg xmlns="http://www.w3.org/2000/svg" xmlns:xlink="http://www.w3.org/1999/xlink" width="48" height="48" viewBox="0 0 48 48">
    <defs>
        <path id="a" d="M0 0h12v12H0z"/>
    </defs>
    <g fill="none" fill-rule="evenodd" transform="translate(8 7)">
        <rect width="30" height="28" x="1" y="4" stroke="#000" stroke-width="2" rx="3"/>
        <rect width="1" height="6" x="8" y="1" stroke="#000" stroke-width="2" rx=".5"/>
        <rect width="30" height="1" x="1" y="11" stroke="#000" stroke-width="2" rx=".5"/>
        <rect width="1" height="6" x="24" y="1" stroke="#000" stroke-width="2" rx=".5"/>
        <g transform="translate(10 15)">
            <mask id="b" fill="#fff">
                <use xlink:href="#a"/>
            </mask>
            <path fill="#000" d="M6.246 5.46V7.1h4.023c-.123.92-.438 1.593-.917 2.067-.588.573-1.505 1.2-3.106 1.2-2.476 0-4.412-1.947-4.412-4.36 0-2.414 1.936-4.36 4.412-4.36 1.334 0 2.313.513 3.031 1.173l1.183-1.153C9.462.72 8.12 0 6.246 0 2.853 0 0 2.693 0 6s2.853 6 6.246 6c1.834 0 3.216-.587 4.297-1.68C11.65 9.24 12 7.713 12 6.487c0-.38-.027-.734-.089-1.027H6.246z" mask="url(#b)"/>
        </g>
    </g>
</svg>
