<svg xmlns="http://www.w3.org/2000/svg" width="24" height="24" viewBox="0 0 24 24">
    <g fill="none" fill-rule="evenodd">
        <rect width="24" height="24" fill="#767676" rx="2"/>
        <path fill="#FFF" fill-rule="nonzero" d="M17.51 6c.27 0 .503.097.698.292.195.195.292.427.292.698v4.291c0 .195-.01.385-.032.572-.02.186-.1.347-.235.482l-6.423 6.424c-.085.076-.176.135-.273.178-.098.042-.201.063-.311.063-.11 0-.214-.021-.311-.063-.098-.043-.185-.102-.26-.178L5.74 13.846c-.076-.076-.135-.163-.178-.26-.042-.098-.063-.202-.063-.312 0-.11.021-.213.063-.31.043-.098.102-.189.178-.274l6.424-6.423c.135-.136.294-.214.476-.235.182-.021.345-.032.489-.032zm-2.26 2.031c-.336 0-.624.12-.862.357-.238.238-.357.526-.357.862 0 .336.12.624.357.862.238.238.526.357.862.357.336 0 .624-.12.862-.357.238-.238.357-.526.357-.862 0-.336-.12-.624-.357-.862-.238-.238-.526-.357-.862-.357z"/>
    </g>
</svg>
