<svg xmlns="http://www.w3.org/2000/svg" width="24" height="24" viewBox="0 0 24 24">
    <g fill="none" fill-rule="evenodd">
        <rect width="24" height="24" fill="#00256C" rx="2"/>
        <path fill="#FFF" d="M15.208 12.917c1.245 0 2.292 1.018 2.292 2.291S16.481 17.5 15.208 17.5s-2.291-1.019-2.291-2.292 1.018-2.291 2.291-2.291zm.75-6.136c.34-.375.917-.375 1.291 0 .34.374.34.953-.034 1.293l-9.143 9.154c-.17.17-.408.272-.646.272-.238 0-.476-.102-.646-.272-.373-.34-.373-.919 0-1.293zM8.792 6.5c1.273 0 2.291 1.019 2.291 2.292s-1.018 2.291-2.291 2.291c-1.245 0-2.292-1.018-2.292-2.291S7.519 6.5 8.792 6.5z"/>
    </g>
</svg>
