<svg xmlns="http://www.w3.org/2000/svg" width="24" height="24" viewBox="0 0 24 24">
    <g fill="none" fill-rule="evenodd">
        <rect width="24" height="24" fill="#767676" rx="2"/>
        <path fill="#FFF" fill-rule="nonzero" d="M15.36 16.612c.645.44.802 1.322.346 1.967-.456.676-1.432 1.4-2.989 1.368-.22 0-.33-.267-.173-.425.834-.912.362-1.856.834-2.548.456-.645 1.337-.802 1.982-.362zM6.52 5.001l.093.002.095.031c3.225.394 6.512.394 9.753 0l.126-.015c.141-.016.299.031.409.126.126.094.188.236.188.393v4.64c-.11.11-.204.252-.283.378l-3.02 4.986c-.503.158-.944.472-1.258.929-.063.11-.126.22-.19.346-.282.047-.55.063-.833.063-2.234 0-4.216-1.353-5.05-3.414C6.19 12.554 6 11.594 6 10.62V5.538c0-.157.079-.3.189-.41.11-.094.267-.14.424-.125zm12.945 5.634c.546.368.69 1.11.357 1.668l-.073.11-3.21 4.12c-.173-.267-.393-.487-.66-.676-.214-.15-.448-.262-.694-.324l-.187-.038 2.706-4.467c.361-.63 1.18-.802 1.761-.393zm-9.202 1.415c-.142-.251-.472-.33-.724-.188-.251.141-.33.471-.188.723.472.818 1.305 1.306 2.25 1.306.943 0 1.792-.488 2.233-1.306.141-.252.047-.582-.205-.723-.251-.142-.582-.063-.723.204-.252.472-.755.755-1.306.755-.55 0-1.054-.299-1.337-.77zm3.445-4.058c-1.054 0-1.416.865-1.447 1.337-.016.094.016.189.078.252.063.078.142.11.236.11h2.281c.095 0 .173-.047.236-.11s.095-.158.079-.252c-.032-.472-.409-1.337-1.463-1.337zm-4.216-.016c-1.07 0-1.416.881-1.463 1.337-.015.095.016.189.079.252.063.079.157.11.236.11h2.28c.095 0 .19-.047.252-.11.063-.063.095-.157.08-.252-.048-.472-.426-1.337-1.464-1.337z"/>
    </g>
</svg>
