<svg xmlns="http://www.w3.org/2000/svg" width="24" height="24" viewBox="0 0 24 24">
    <g fill="none" fill-rule="evenodd">
        <rect width="24" height="24" fill="#767676" rx="2"/>
        <path fill="#FFF" fill-rule="nonzero" d="M12.057 4.5c.86 0 1.628.148 2.306.444.678.296 1.249.7 1.712 1.21.463.511.816 1.106 1.06 1.784.243.677.365 1.394.365 2.148 0 .764-.15 1.544-.451 2.342-.301.797-.68 1.58-1.139 2.349-.458.768-.955 1.496-1.49 2.184-.534.687-1.035 1.299-1.503 1.833 0 .01-.072.074-.215.194-.143.119-.31.179-.501.179h-.043c-.201 0-.37-.06-.509-.18-.138-.119-.208-.183-.208-.193-.496-.573-1.033-1.198-1.61-1.876-.579-.678-1.113-1.392-1.605-2.141-.492-.75-.902-1.52-1.232-2.313-.33-.793-.494-1.586-.494-2.378 0-.754.148-1.47.444-2.149.296-.677.697-1.272 1.203-1.783.506-.51 1.096-.914 1.769-1.21.673-.296 1.387-.444 2.141-.444zM12 7.708c-.629 0-1.168.225-1.617.675-.45.45-.675.988-.675 1.617 0 .637.225 1.178.675 1.623.45.446.988.669 1.617.669.637 0 1.178-.223 1.623-.669.446-.445.669-.986.669-1.623 0-.629-.223-1.168-.669-1.617-.445-.45-.986-.675-1.623-.675z"/>
    </g>
</svg>
