<svg xmlns="http://www.w3.org/2000/svg" width="32" height="32" viewBox="0 0 32 32">
    <g fill="none" fill-rule="evenodd">
        <path d="M0 0h32v32H0z"/>
        <g stroke="#000" stroke-linecap="round" stroke-linejoin="round" stroke-width="1.5">
            <path d="M3.05 19.378c1.676-.187 2.747-1.457 2.877-2.864a3.053 3.053 0 0 0-.532-2.046c-.562-.825-1.368-1.27-2.353-1.39M21.308 6H4.489c-.799 0-1.446.648-1.446 1.447v5.631"/>
            <path d="M26.443 11.127V7.443c0-.797-.647-1.443-1.444-1.443h-4.592M15.865 25.556H4.446C3.647 25.556 3 24.908 3 24.11v-4.73M24.471 22.312l3.61 3.61M25.944 18.49a4.96 4.96 0 1 1-9.919 0 4.96 4.96 0 0 1 9.919 0zM19.965 9.979v1.26M19.965 6.297v1.26"/>
        </g>
    </g>
</svg>
