<svg xmlns="http://www.w3.org/2000/svg" xmlns:xlink="http://www.w3.org/1999/xlink" width="24" height="24" viewBox="0 0 24 24">
    <defs>
        <path id="a" d="M.338.63h18.26v15.88H.338z"/>
        <path id="c" d="M0 .494h18.259v15.88H0z"/>
    </defs>
    <g fill="none" fill-rule="evenodd">
        <path d="M0 0h24v24H0z"/>
        <g transform="translate(2.77 2)">
            <mask id="b" fill="#fff">
                <use xlink:href="#a"/>
            </mask>
            <path fill="#E1251B" d="M13.072 4.537c2.95.921 5.094 3.705 5.094 6.996 0 .48-.045.948-.134 1.402l-.008.065a8.41 8.41 0 0 1-1.48 3.495l-.015.015a9.848 9.848 0 0 0 2.069-6.063C18.598 5.026 14.26.63 8.909.63c-2.437 0-4.663.91-6.366 2.419l-.021.017a6.848 6.848 0 0 0-2.184 5.03c0 .826.145 1.618.41 2.35l.014.033c.673 1.497 2.161 2.537 3.89 2.537 2.36 0 4.273-1.937 4.273-4.332L8.913 6.82c0-.858.472-1.604 1.165-1.983l.009-.005a3.712 3.712 0 0 1 1.828-.476c.404 0 .79.062 1.153.18h.004z" mask="url(#b)"/>
        </g>
        <g transform="translate(2 5.899)">
            <mask id="d" fill="#fff">
                <use xlink:href="#c"/>
            </mask>
            <path fill="#002F87" d="M5.525 12.467C2.575 11.545.43 8.76.43 5.47c0-.48.045-.947.134-1.402l.008-.065A8.41 8.41 0 0 1 2.053.51l.015-.015A9.848 9.848 0 0 0 0 6.556c0 5.422 4.336 9.819 9.688 9.819 2.437 0 4.663-.911 6.366-2.42l.022-.017a6.848 6.848 0 0 0 2.183-5.03 6.87 6.87 0 0 0-.41-2.349l-.014-.033c-.672-1.497-2.16-2.537-3.89-2.537-2.36 0-4.272 1.936-4.272 4.331l.011 1.864c0 .857-.471 1.603-1.165 1.982l-.009.005a3.712 3.712 0 0 1-1.828.476c-.404 0-.79-.062-1.153-.179l-.004-.001z" mask="url(#d)"/>
        </g>
    </g>
</svg>
