<svg xmlns="http://www.w3.org/2000/svg" width="32" height="32" viewBox="0 0 32 32">
    <g fill="none" fill-rule="evenodd">
        <path d="M0 0h32v32H0z"/>
        <g stroke="#000" stroke-linecap="round" stroke-linejoin="round" stroke-width="1.5">
            <path d="M21.858 20.393l1.294 1.561 2.306-2.532M18.966 12.661v1.26M18.966 8.979v1.26M18.966 5.297v1.26M2.051 18.378c1.676-.187 2.747-1.457 2.876-2.864a3.048 3.048 0 0 0-.531-2.046c-.563-.825-1.368-1.27-2.353-1.39M20.309 5H3.49c-.798 0-1.447.648-1.447 1.447v5.631"/>
            <path d="M25.443 11.927V6.443C25.443 5.646 24.797 5 24 5h-4.591M14.866 24.556H3.447A1.448 1.448 0 0 1 2 23.11v-4.73M29.508 20.688a5.85 5.85 0 1 1-11.7 0 5.85 5.85 0 0 1 11.7 0z"/>
        </g>
    </g>
</svg>
