<svg xmlns="http://www.w3.org/2000/svg" width="49" height="49" viewBox="0 0 49 49">
    <g fill="none" fill-rule="evenodd" transform="translate(0 1)">
        <rect width="48" height="48" fill="#F8F9FC" rx="24"/>
        <g>
            <g>
                <path fill="#66E2FF" d="M7.733 0h11.2c2.21 0 4 1.79 4 4v17.6c0 2.21-1.79 4-4 4h-11.2c-2.209 0-4-1.79-4-4V4c0-2.21 1.791-4 4-4z" transform="translate(8 7) translate(4.667 3.333)"/>
                <path fill="#FFF" d="M7.867 2.133H18.8c1.105 0 2 .896 2 2v22.534H5.867V4.133c0-1.104.895-2 2-2z" transform="translate(8 7) translate(4.667 3.333)"/>
                <path fill="#00256C" d="M2 12.267h17.2V25.6H2c-1.105 0-2-.895-2-2v-9.333c0-1.105.895-2 2-2z" transform="translate(8 7) translate(4.667 3.333)"/>
                <path stroke="#00256C" stroke-width="2" d="M8 12.607v-1.982c0-.566.318-1.025.711-1.025h4.978c.393 0 .711.459.711 1.025V12.8" transform="translate(8 7) translate(4.667 3.333)"/>
            </g>
            <path d="M0 0H32V32H0z" opacity=".278" transform="translate(8 7)"/>
        </g>
    </g>
</svg>
