<svg xmlns="http://www.w3.org/2000/svg" width="24" height="24" viewBox="0 0 24 24">
    <g fill="none" fill-rule="evenodd">
        <path fill="#E7322D" d="M24 22.125C24 23.16 23.16 24 22.125 24H1.875A1.875 1.875 0 0 1 0 22.125V1.875C0 .839.84 0 1.875 0h20.25C23.16 0 24 .84 24 1.875v20.25z"/>
        <path fill="#FEFEFE" d="M11.98 12.009c1.529 0 2.423-.913 2.423-2.104v-.04c0-1.37-.953-2.105-2.483-2.105H9.558v4.249h2.422zM6.5 6.529C6.5 5.675 7.175 5 8.028 5h4.15C15.496 5 17.5 6.965 17.5 9.805v.04c0 3.216-2.502 4.885-5.62 4.885H9.559v2.879c0 .854-.675 1.529-1.53 1.529A1.517 1.517 0 0 1 6.5 17.609V6.529z"/>
    </g>
</svg>
