<svg xmlns="http://www.w3.org/2000/svg" xmlns:xlink="http://www.w3.org/1999/xlink" width="24" height="24" viewBox="0 0 24 24">
    <defs>
        <rect id="a" width="24" height="24" rx="2"/>
        <path id="c" d="M.02.097h3.718v5.13H.02z"/>
    </defs>
    <g fill="none" fill-rule="evenodd">
        <mask id="b" fill="#fff">
            <use xlink:href="#a"/>
        </mask>
        <use fill="#F7F3F3" xlink:href="#a"/>
        <g mask="url(#b)">
            <g transform="translate(5.983 11.713)">
                <mask id="d" fill="#fff">
                    <use xlink:href="#c"/>
                </mask>
                <path fill="#1D1D1B" d="M1.841.813c-.296 0-.555.093-.767.31-.217.226-.3.55-.3.871 0 .343.081.678.292.904.213.227.476.306.781.306.31 0 .562-.126.753-.32.22-.223.324-.526.324-.852 0-.357-.105-.674-.318-.9a1.03 1.03 0 0 0-.765-.319M.021 5.227V.179h.812V.55c.113-.18.33-.309.502-.367a1.795 1.795 0 0 1 1.852.471c.36.375.551.83.551 1.37 0 .247-.047.491-.142.725a1.814 1.814 0 0 1-.39.614c-.177.186-.379.326-.6.421a1.684 1.684 0 0 1-.701.142 1.72 1.72 0 0 1-.57-.093c-.177-.057-.425-.2-.515-.356v1.75h-.8" mask="url(#d)"/>
            </g>
            <path fill="#1D1D1B" d="M15.297 16.94l.686-1.592-1.574-3.456h.857l1.119 2.595 1.031-2.595h.862l-2.14 5.047zM11.332 12.845c-.212.226-.317.543-.317.9 0 .326.105.63.324.853.191.193.443.32.753.32.306 0 .568-.08.78-.307.213-.226.293-.56.293-.904 0-.322-.083-.644-.3-.871a1.02 1.02 0 0 0-.767-.31c-.319 0-.582.124-.766.319m1.786 2.727v-.382c-.089.156-.338.299-.514.356a1.73 1.73 0 0 1-.57.093 1.69 1.69 0 0 1-.7-.142 1.81 1.81 0 0 1-.6-.421 1.794 1.794 0 0 1-.391-.614 1.932 1.932 0 0 1-.143-.725c0-.54.19-.995.551-1.37a1.798 1.798 0 0 1 1.853-.47c.172.057.39.185.503.366v-.37h.812v3.68h-.8M19.13 9.557L19.088 7.1h.776v3.1h-1.115l-.773-2.545h-.02l.045 2.545h-.77V7.1h1.162l.72 2.457zM5.044 7.389l-.428 2.84h-.845l.58-3.13h1.393l.579 3.13H5.48l-.418-2.84zM8.694 9.494L9.08 7.1h1.276l.07 3.129h-.784l-.022-2.814h-.015l-.523 2.814H8.29l-.525-2.814h-.018l-.02 2.814h-.782L7.016 7.1h1.277l.385 2.394zM15.258 9.76c.22 0 .285-.15.301-.225.007-.034.007-.08.007-.12V7.1h.795v2.243c0 .059-.007.176-.01.207-.053.585-.517.773-1.093.773-.575 0-1.037-.188-1.09-.773a2.03 2.03 0 0 1-.008-.207V7.1h.792v2.315a.6.6 0 0 0 .006.12c.015.075.083.225.3.225M2.453 9.346c.03.076.021.173.006.231-.025.105-.095.212-.306.212-.195 0-.313-.113-.313-.285l-.002-.303H1v.241c0 .7.548.909 1.135.909.569 0 1.034-.192 1.108-.714.038-.271.01-.448-.002-.514-.132-.657-1.32-.85-1.41-1.217a.379.379 0 0 1-.003-.164c.022-.102.09-.211.285-.211.186 0 .293.115.293.282v.196h.781v-.22C3.187 7.106 2.574 7 2.13 7c-.556 0-1.011.185-1.094.696-.022.138-.025.263.006.42.137.642 1.25.825 1.411 1.23M12.63 9.342c.032.074.019.17.007.228-.024.103-.096.207-.302.207-.194 0-.311-.111-.311-.28v-.302h-.832v.241c0 .693.544.898 1.127.898.558 0 1.02-.19 1.094-.707a1.5 1.5 0 0 0-.004-.51c-.13-.648-1.306-.84-1.393-1.205a.415.415 0 0 1-.004-.16c.021-.1.09-.208.283-.208.184 0 .29.111.29.277v.193h.771v-.217c0-.674-.606-.78-1.043-.78-.552 0-1.003.18-1.083.688a.989.989 0 0 0 .006.417c.134.636 1.235.817 1.394 1.22M21.788 9.728c.225 0 .305-.141.32-.227a.873.873 0 0 0 .006-.12V8.93h-.32V8.47h1.108v.841c0 .059-.002.102-.01.207-.053.566-.547.773-1.103.773-.554 0-1.046-.207-1.097-.773-.012-.105-.012-.148-.012-.207V7.995c0-.057.006-.155.014-.206.068-.588.541-.774 1.095-.774.556 0 1.044.184 1.1.774.011.097.005.206.005.206l.002.101h-.789v-.174s0-.076-.01-.12c-.014-.067-.075-.226-.314-.226-.225 0-.293.15-.31.226a.716.716 0 0 0-.012.149v1.43c0 .04.001.085.005.12.015.086.094.227.322.227"/>
        </g>
    </g>
</svg>
