<svg xmlns="http://www.w3.org/2000/svg" width="69" height="24" viewBox="0 0 69 24">
    <g fill="none">
        <path fill="#00A1E9" d="M3.877 0C1.734 0 0 1.72 0 3.842v16.295c0 2.12 1.734 3.84 3.877 3.84h16.45c2.141 0 3.876-1.72 3.876-3.84v-.167c-.072-.03-6.29-2.6-9.45-4.105-2.133 2.6-4.883 4.177-7.738 4.177-4.829 0-6.469-4.187-4.182-6.943.498-.6 1.346-1.174 2.662-1.496 2.06-.5 5.336.313 8.407 1.317.552-1.008 1.017-2.118 1.363-3.3H5.801v-.95h4.88V6.967h-5.91v-.95h5.91v-2.43s0-.408.419-.408h2.385v2.838h5.844v.95h-5.844V8.67h4.77c-.456 1.852-1.15 3.557-2.02 5.054 1.448.519 2.748 1.01 3.716 1.332 3.23 1.071 4.135 1.202 4.252 1.215V3.842C24.203 1.719 22.468 0 20.327 0H3.877zm2.654 12.991c-.207.003-.415.014-.625.034-.605.06-1.74.325-2.36.869-1.86 1.607-.747 4.545 3.018 4.545 2.188 0 4.375-1.386 6.093-3.606-2.215-1.07-4.122-1.865-6.126-1.842z"/>
        <path fill="#3F3B3A" d="M66.298 16.669l-1.08 2.33-1.097-2.33H63.05l1.668 3.223v2.248h.983v-2.248l.005-.013 1.662-3.21h-1.07zm-7.91 1.41l.761 2.269H57.6l.788-2.269zm.996 2.958l.367 1.102h1.03l-2.028-5.47h-.787l-2.022 5.47h1.031l.383-1.102h2.026zm-7.687-1.753h-1.093v-1.872h1.093c.55 0 .879.478.879.94 0 .452-.308.932-.879.932m.056-2.615h-2.14v5.47h.99v-2.103h1.15c1.068 0 1.814-.693 1.814-1.684 0-.992-.746-1.683-1.814-1.683m-7.146 5.47h.991v-5.47h-.99l-.001 5.47zm-6.967-5.47v5.47h3.334v-.745h-2.343V16.67h-.99zM32 18.079l.76 2.269h-1.55l.79-2.269zm.996 2.958l.367 1.102h1.029l-2.028-5.47h-.786l-2.021 5.47h1.03l.383-1.102h2.026zm6.972-15.063h-4.249V4.46h4.927v-.942h-4.927V1.602h-2.196c-.24 0-.435.2-.435.448v1.469h-4.892v.942h4.892v1.513h-4.129v.94h8.224s-.456 1.769-2.712 3.669c-2.02-1.52-2.696-2.731-2.696-2.731h-2.206c.892 1.537 2.16 2.768 3.526 3.744-1.254.81-2.881 1.59-4.985 2.216v1.127s3.246-.608 6.382-2.444c3.142 1.822 6.298 2.444 6.298 2.444v-1.067c-2.02-.73-3.62-1.534-4.876-2.308 1.82-1.34 3.415-3.158 4.054-5.59m13.8-4.183h-2.211v2.296h-5.451v.924h5.45v8.254c-.019.19-.169.337-.356.347h-1.125v.956h2.867c.454-.018.816-.393.826-.856v-8.7h.898v-.925h-.898V1.79zm-4.664 4.778c-.08-.164-.246-.277-.438-.279h-1.842l1.436 4.491h2.18L49.102 6.57zm-5.442-4.887l-2.537 5.961h1.947v7.094h2.128v-9.41h-.772l1.603-3.645h-2.37zm24.676 12.73l-.777-2.61c-.053-.166-.204-.286-.385-.286h-2.06l.598 2.003H63.29V9.637h4.757v-.923H63.29V6.886h4.757v-.923h-11.87v.923h4.755v1.828h-4.756v.923h4.756v3.882h-4.756v.924h12.161l-.01-.032h.01zM58.65 3.758h6.927v1.363h2.475V3.507v-.01c0-.363-.287-.656-.641-.662h-4.005V1.564h-2.59v1.27h-4.64v2.288h2.474V3.759z"/>
    </g>
</svg>
