<svg xmlns="http://www.w3.org/2000/svg" width="24" height="24" viewBox="0 0 24 24">
    <g fill="none" fill-rule="evenodd">
        <path d="M0 0h24v24H0z"/>
        <g transform="translate(0 5)">
            <path fill="#39C94C" d="M2 0h20a2 2 0 0 1 2 2v3H0V2a2 2 0 0 1 2-2z"/>
            <path fill="#2286D6" d="M0 6h24v2H0z"/>
            <rect width="24" height="2" y="13" fill="#D9D9D7" rx="1"/>
            <path fill="#D9D9D7" d="M0 8h2v6H0zM7 8h2v6H7zM15 8h2v6h-2zM22 8h2v6h-2z"/>
            <path fill="#FFF" d="M8 1h8v6H8z"/>
            <g fill="#2286D6" fill-rule="nonzero">
                <path d="M11.729 6v-.526H9.897l.965-1.032c.253-.275.435-.52.546-.736.111-.216.167-.422.167-.62 0-.339-.111-.605-.332-.797-.222-.193-.524-.289-.907-.289-.266 0-.5.053-.703.16-.203.106-.36.256-.469.448a1.29 1.29 0 0 0-.164.65h.659c0-.226.058-.404.176-.534.117-.13.282-.196.496-.196a.55.55 0 0 1 .426.174.649.649 0 0 1 .159.455c0 .143-.04.285-.12.427-.081.142-.216.318-.406.53L9.076 5.547V6h2.653zM14.513 6.062v-.89h.497v-.536h-.497V2.062h-.69l-1.725 2.703.019.406h1.728v.89h.668zm-.668-1.426h-1.047l.998-1.583.049-.088v1.67z"/>
            </g>
        </g>
    </g>
</svg>
