<svg xmlns="http://www.w3.org/2000/svg" xmlns:xlink="http://www.w3.org/1999/xlink" width="102" height="24" viewBox="0 0 102 24">
    <defs>
        <path id="prefix__a" d="M0 0.214L17.104 0.214 17.104 21.805 0 21.805z"/>
        <path id="prefix__c" d="M0 23.881L101.524 23.881 101.524 0 0 0z"/>
    </defs>
    <g fill="none" fill-rule="evenodd">
        <g transform="translate(0 .597)">
            <mask id="prefix__b" fill="#fff">
                <use xlink:href="#prefix__a"/>
            </mask>
            <path fill="#DF393E" d="M6.76.214h8.615c1.204 0 1.951.979 1.67 2.185l-4.011 17.222c-.283 1.206-1.487 2.184-2.69 2.184H1.728c-1.204 0-1.951-.978-1.668-2.184L4.07 2.399C4.351 1.193 5.554.214 6.76.214" mask="url(#prefix__b)"/>
        </g>
        <path fill="#004B84" d="M14.66.811h9.905c1.206 0 .662.979.38 2.185l-4.01 17.222c-.284 1.206-.194 2.184-1.4 2.184H9.627c-1.205 0-1.952-.978-1.669-2.184l4.01-17.222C12.253 1.79 13.457.81 14.66.81"/>
        <path fill="#008185" d="M24.175.811h8.614c1.205 0 1.953.979 1.67 2.185l-4.01 17.222c-.283 1.206-1.487 2.184-2.69 2.184h-8.615c-1.204 0-1.953-.978-1.67-2.184l4.01-17.222C21.767 1.79 22.97.81 24.176.81"/>
        <path fill="#FEFEFE" d="M25.585 13.525L24.536 17h.281l-.218.72h-.281l-.067.22h-.999l.068-.22h-2.03l.203-.665.206-.003 1.066-3.527.212-.713h1.02l-.107.362s.272-.198.528-.263c.257-.067 1.737-.092 1.737-.092l-.22.706h-.35zm-1.797 0l-.27.89s.302-.139.47-.182c.166-.043.416-.06.416-.06l.195-.648h-.811zm-.404 1.331l-.277.922s.307-.16.475-.203c.167-.044.42-.072.42-.072l.195-.647h-.813zm-.648 2.153h.812l.235-.782h-.811l-.236.782z"/>
        <path fill="#FEFEFE" d="M26.037 12.82h1.086l.013.405c-.008.064.052.097.178.1h.222l-.203.67h-.587c-.51.035-.702-.184-.69-.43l-.02-.746zM26.178 15.993h-1.037l.18-.596h1.182l.171-.546h-1.17l.202-.67h3.255l-.203.67h-1.093l-.17.546h1.095l-.18.596h-1.184l-.21.251h.479l.118.752c.01.075.015.122.036.153.026.027.169.04.254.04h.145l-.223.733h-.369c-.057 0-.142-.002-.257-.012-.112-.008-.192-.073-.267-.109-.068-.032-.168-.116-.194-.256l-.114-.748-.537.74c-.173.229-.404.408-.793.408h-.757l.196-.65h.29c.084 0 .159-.035.213-.062.054-.023.102-.053.159-.132l.783-1.108zM14.82 14.363h2.744l-.198.655h-1.103l-.168.56h1.12l-.204.676H15.89l-.273.905c-.032.1.268.116.375.116l.561-.076-.224.746h-1.266c-.102 0-.179-.012-.288-.038-.107-.027-.154-.076-.201-.148-.046-.072-.117-.134-.069-.29l.362-1.204h-.623l.208-.688h.625l.168-.56h-.623l.198-.654zM16.668 13.186h1.127l-.205.682h-1.54l-.167.146c-.07.068-.096.041-.188.09-.088.045-.271.13-.508.13h-.493l.2-.658h.147c.126 0 .211-.011.256-.04.046-.029.102-.099.165-.21l.282-.514h1.122l-.198.374zM18.28 12.816h.96l-.142.483s.305-.242.517-.324c.211-.081.69-.151.69-.151l1.55-.009-.526 1.762c-.09.3-.193.497-.258.586-.06.088-.127.168-.262.242-.133.069-.252.108-.36.12-.106.007-.263.009-.479.014h-1.496l-.42 1.395c-.043.137-.061.201-.036.239.024.034.075.071.145.071l.658-.064-.225.766h-.74c-.234 0-.406-.003-.524-.014-.114-.01-.234 0-.312-.064-.07-.06-.174-.136-.171-.218.007-.078.037-.202.087-.375l1.343-4.46zm2.036 1.781h-1.573l-.096.317h1.362c.161-.015.194.005.207-.001l.1-.316zm-1.486-.285s.306-.282.833-.373c.12-.023.87-.015.87-.015l.114-.379H19.06l-.231.767z"/>
        <path fill="#FEFEFE" d="M21.076 15.66l-.087.426c-.04.13-.07.231-.172.317-.104.09-.228.183-.516.183l-.53.02-.007.478c-.006.137.03.123.052.146.024.022.046.033.07.04l.168-.007.509-.03-.21.7h-.582c-.411 0-.713-.011-.814-.087-.097-.067-.111-.143-.109-.275l.04-1.867h.93l-.012.382h.223c.078 0 .128-.007.162-.028.027-.02.047-.052.063-.1l.088-.297h.734zM7.78 6.31L7.146 9.22c-.13.557-.223.958-.54 1.215-.183.148-.392.22-.636.22-.392 0-.622-.196-.662-.566L5.3 9.964l.121-.75s.63-2.514.74-2.85l.01-.038c-1.22.015-1.44.005-1.454-.017-.007.027-.04.182-.04.182l-.64 2.835-.055.241-.105.784c0 .234.046.424.137.583.292.512 1.125.59 1.596.59.606 0 1.174-.133 1.56-.365.666-.396.842-1.014.998-1.561l.073-.281S8.889 6.705 9 6.365l.008-.04c-.884.014-1.146.003-1.229-.016M11.354 11.494c-.435-.004-.584-.004-1.092.017l-.02-.033c.045-.196.094-.385.137-.58l.061-.262c.095-.412.187-.887.197-1.031.01-.089.038-.306-.21-.306-.107 0-.217.05-.328.1-.061.216-.184.83-.243 1.11-.124.59-.134.657-.189.946l-.036.04c-.446-.005-.602-.005-1.114.016l-.025-.039c.087-.351.172-.702.252-1.054.217-.947.268-1.31.327-1.788l.04-.034c.503-.067.622-.084 1.166-.195l.045.05-.082.306c.09-.055.18-.112.274-.161.256-.123.54-.162.696-.162.237 0 .497.067.606.341.104.244.036.545-.1 1.142l-.07.301c-.14.663-.163.785-.239 1.237l-.053.04zM13.115 11.494c-.261-.002-.43-.003-.594-.002-.161.002-.321.009-.564.019l-.014-.019-.015-.02c.065-.25.101-.34.135-.428.033-.089.064-.178.122-.432.076-.33.122-.565.157-.766.034-.199.055-.366.079-.56l.02-.014.021-.018c.26-.036.425-.061.593-.087.17-.028.34-.059.612-.109l.008.023.01.023-.151.62-.145.619c-.098.435-.136.6-.159.714-.022.112-.029.172-.067.398l-.023.02-.025.02zM17.007 10.002c.153-.667.037-.979-.113-1.168-.227-.29-.624-.384-1.039-.384-.248 0-.84.028-1.302.457-.33.306-.487.722-.579 1.124-.093.405-.2 1.145.471 1.412.213.09.51.118.703.118.496 0 1.004-.139 1.384-.545.295-.323.43-.813.475-1.014m-1.132-.05c-.025.112-.122.535-.257.712-.09.129-.201.207-.322.207-.035 0-.25 0-.254-.317-.002-.156.029-.319.07-.496.114-.5.25-.923.592-.923.271 0 .287.311.171.817M27.602 11.54c-.524-.006-.671-.006-1.157.016l-.031-.04c.132-.496.264-.993.38-1.496.15-.651.187-.928.235-1.31l.041-.033c.52-.07.662-.094 1.204-.193l.017.045c-.1.409-.199.816-.293 1.226-.2.861-.272 1.298-.349 1.745l-.047.04z"/>
        <path fill="#FEFEFE" d="M27.85 10.06c.153-.663-.46-.055-.558-.276-.15-.342-.054-1.034-.658-1.266-.231-.089-.775.028-1.239.454-.33.303-.486.717-.578 1.115-.094.404-.202 1.139.472 1.404.211.087.406.114.6.104.675-.033 1.19-1.056 1.57-1.46.295-.318.345.124.391-.076m-1.033-.05c-.026.11-.123.53-.258.708-.09.126-.3.204-.42.204-.034 0-.249 0-.253-.315-.004-.154.028-.315.068-.491.115-.497.25-.916.593-.916.27 0 .385.309.27.81M19.968 11.494c-.434-.004-.583-.004-1.092.017l-.02-.033c.045-.196.093-.385.139-.58l.06-.262c.094-.412.186-.887.197-1.031.009-.089.037-.306-.212-.306-.105 0-.215.05-.326.1-.06.216-.184.83-.244 1.11-.123.59-.133.657-.188.946l-.037.04c-.446-.005-.6-.005-1.115.016l-.023-.039c.086-.351.171-.702.252-1.054.217-.947.267-1.31.327-1.788l.04-.034c.501-.067.623-.084 1.165-.195l.044.05-.08.306c.09-.055.18-.112.274-.161.254-.123.539-.162.694-.162.237 0 .498.067.608.341.103.244.034.545-.102 1.142l-.068.301c-.14.663-.163.785-.24 1.237l-.053.04zM24.192 7.925c-.079.344-.3.634-.587.776-.241.119-.53.13-.829.13h-.195l.017-.08.355-1.545.009-.08.008-.062.14.014s.736.065.755.07c.29.11.411.4.327.777m-.47-1.621l-.36.007c-.936.01-1.312.007-1.468-.012l-.038.19-.333 1.557-.841 3.462c.816-.01 1.152-.011 1.292.004.032-.155.223-1.078.225-1.078 0 0 .162-.68.172-.702 0 0 .049-.071.103-.1h.073c.704 0 1.502 0 2.126-.46.424-.31.715-.775.845-1.34.033-.14.058-.305.058-.472 0-.213-.042-.43-.169-.6-.319-.444-.95-.449-1.685-.456M31.883 8.48l-.042-.05c-.533.11-.63.128-1.12.194l-.04.033-.004.024-.002-.006c-.368.846-.356.664-.653 1.326l-.004-.08-.075-1.441-.045-.05c-.562.11-.575.128-1.092.194l-.041.033-.008.058.005.005c.063.333.05.26.113.78.03.255.07.515.099.768.053.42.08.634.142 1.274-.35.58-.433.798-.765 1.306l.017.043c.507-.016.623-.016.998-.016l.082-.092c.283-.61 2.435-4.303 2.435-4.303M13.591 8.835c.286-.197.323-.474.08-.618-.244-.142-.672-.097-.96.1-.29.199-.322.476-.08.62.242.142.672.098.96-.102"/>
        <path fill="#FEFEFE" d="M29.41 12.832l-.42.721c-.136.246-.382.43-.773.434l-.672-.01.196-.651h.13c.068 0 .12-.005.157-.023.033-.01.058-.037.085-.077l.25-.394h1.047z"/>
        <mask id="prefix__d" fill="#fff">
            <use xlink:href="#prefix__c"/>
        </mask>
        <path fill="#D0D2D3" d="M48.589 10.678L101.16 10.678 101.16 10.077 48.589 10.077z" mask="url(#prefix__d)"/>
        <path fill="#215383" d="M48.604 12.381L101.16 12.381 101.16 11.239 48.604 11.239zM58.36 6.6c-.326.433-.663.745-1.011.934-.349.189-.781.283-1.298.283-.902 0-1.641-.291-2.219-.874-.577-.583-.866-1.336-.866-2.26 0-.946.283-1.704.85-2.274.566-.57 1.304-.854 2.214-.854.587 0 1.065.158 1.433.474l.863-.466v2.44h-.198c0-.428-.104-.81-.312-1.143-.208-.334-.452-.589-.735-.765-.282-.176-.565-.264-.849-.264-.137 0-.251.035-.341.104-.09.068-.146.159-.169.27-.023.111-.034.281-.034.51V6.6c0 .337.051.58.152.727.101.148.271.222.51.222.674 0 1.278-.363 1.812-1.09l.198.14zM64.542 7.637h-2.747v-.18h.287V4.855c0-.31-.093-.466-.278-.466-.135 0-.287.069-.456.207v2.86h.295v.181h-2.738v-.18h.526V1.924h-.526v-.18h1.415c.39 0 .734-.037 1.028-.11V4.38c.48-.308.961-.462 1.441-.462.394 0 .696.108.909.325.212.217.318.535.318.954v2.259h.526v.18zM66.545 1.634c.236 0 .421.06.556.182.135.122.202.29.202.503 0 .217-.116.41-.348.58-.231.17-.502.255-.81.255-.231 0-.416-.058-.557-.176-.14-.117-.21-.27-.21-.461 0-.24.114-.447.343-.622.229-.174.503-.261.824-.261zm1.361 6.003h-3.047v-.18h.574V4.161h-.574v-.176h1.425c.359 0 .713-.04 1.061-.119v3.591h.561v.18zM73.827 7.637h-2.739v-.18h.295V4.88c0-.304-.085-.457-.257-.457-.138 0-.296.084-.476.25v2.783h.295v.18h-2.747v-.18h.534V4.16h-.534v-.176h1.605c.264 0 .546-.04.847-.119v.593c.472-.36.946-.54 1.424-.54.331 0 .619.087.862.26.243.172.364.475.364.91v2.368h.527v.18zM76.82 7.206v-1.26c-.18-.074-.32-.11-.422-.11-.112 0-.192.028-.24.087-.047.059-.071.155-.071.29v.813c0 .246.085.37.256.37.101 0 .26-.063.477-.19zm2.38-.272c-.255.548-.723.822-1.403.822-.37 0-.682-.129-.935-.387-.393.258-.787.387-1.18.387-.407 0-.744-.1-1.01-.301-.265-.2-.397-.452-.397-.754 0-.343.138-.612.417-.807.278-.195.66-.292 1.146-.292.374 0 .7.048.982.145v-.874c0-.238-.028-.4-.084-.486-.057-.086-.143-.152-.257-.196-.116-.044-.244-.065-.384-.065-.177 0-.31.021-.396.065.303.094.455.304.455.629 0 .217-.062.39-.186.518-.123.13-.288.194-.492.194-.217 0-.392-.066-.525-.198-.134-.132-.2-.303-.2-.514 0-.287.134-.509.402-.666.268-.156.648-.235 1.14-.235.523 0 .951.038 1.285.114.334.076.58.172.738.288.157.116.265.237.324.365.059.127.088.324.088.591v1.657c0 .09.004.151.01.18.008.03.027.044.058.044.053 0 .137-.1.253-.303l.152.079zM83.736 4.407V2.86c0-.27-.019-.469-.055-.598-.037-.129-.09-.213-.162-.253-.072-.04-.195-.059-.37-.059h-.311v3.103h.303c.396 0 .595-.215.595-.646zm-4.033-2.664h4.602c.5 0 .871.052 1.114.155.243.102.436.295.58.577.143.283.214.596.214.939 0 .372-.084.714-.252 1.028-.17.314-.418.528-.748.644-.33.116-.79.173-1.376.173h-.999V7.43h.775v.207h-3.91V7.43h.674V1.95h-.674v-.207zM89.214 7.206v-1.26c-.18-.074-.32-.11-.421-.11-.112 0-.192.028-.24.087-.048.059-.072.155-.072.29v.813c0 .246.085.37.257.37.101 0 .26-.063.476-.19zm2.381-.272c-.255.548-.723.822-1.403.822-.371 0-.683-.129-.936-.387-.393.258-.786.387-1.18.387-.406 0-.743-.1-1.009-.301-.265-.2-.398-.452-.398-.754 0-.343.139-.612.417-.807.278-.195.66-.292 1.147-.292.373 0 .7.048.981.145v-.874c0-.238-.028-.4-.084-.486-.056-.086-.142-.152-.257-.196-.115-.044-.243-.065-.383-.065-.177 0-.31.021-.397.065.304.094.456.304.456.629 0 .217-.062.39-.186.518-.124.13-.288.194-.493.194-.216 0-.391-.066-.525-.198-.133-.132-.2-.303-.2-.514 0-.287.134-.509.403-.666.268-.156.648-.235 1.14-.235.522 0 .95.038 1.285.114.334.076.58.172.737.288.157.116.266.237.325.365.059.127.088.324.088.591v1.657c0 .09.004.151.01.18.008.03.027.044.058.044.053 0 .137-.1.253-.303l.151.079zM96.303 4.16c-.163.03-.298.097-.405.203-.107.105-.222.287-.346.545L93.644 8.84c-.264.542-.583.813-.957.813-.239 0-.436-.079-.59-.237-.154-.158-.232-.359-.232-.602 0-.252.077-.461.23-.628.153-.168.345-.25.575-.25.208 0 .386.063.534.19.147.128.239.302.275.525h.017l.519-1.05-1.888-3.441h-.228v-.176h2.807v.176h-.363l.716 1.314c.172-.343.27-.555.293-.637.024-.082.036-.151.036-.207 0-.155-.043-.268-.128-.336-.086-.07-.221-.114-.407-.134v-.176h1.45v.176zM41.266 23.881L41.894 23.881 41.894 0 41.266 0zM51.83 17.558h1.656v-.675H51.83v.675zm0-1.107h1.656v-.648H51.83v.648zm-.466-1.08h2.614c-.018.324-.026.675-.026 1.053v.621c0 .306.008.621.026.945h-1.242c.051.306.146.612.284.918.328-.234.587-.486.777-.756.12.126.276.27.466.432-.501.288-.855.53-1.061.729.293.504.732.882 1.32 1.133-.208.126-.372.288-.493.486-.414-.288-.78-.692-1.1-1.215-.319-.521-.54-1.097-.66-1.727h-.44v2.321c.139-.071.354-.233.648-.485.051.18.12.342.207.485-.328.162-.734.432-1.217.81-.103-.18-.19-.333-.259-.459.104-.144.164-.368.182-.674v-3.456c0-.36-.01-.746-.026-1.16zm-2.226 1.755c.276.018.543.027.802.027s.518-.009.777-.027v.459c-.277-.018-.501-.027-.673-.027v.756c.293 0 .595-.009.905-.027v.513c-.31-.018-.612-.027-.905-.027v1.323c.259-.216.483-.423.673-.621.051.216.103.396.155.54-.104.053-.276.184-.517.39-.243.208-.45.42-.622.635-.103-.162-.216-.315-.336-.459.12-.161.19-.368.207-.62v-1.188c-.242 0-.518.01-.828.027v-.513c.344.018.62.027.828.027v-.756c-.104 0-.259.01-.466.027v-.459zm.259-.648c-.31.45-.535.765-.673.945-.138-.18-.259-.324-.363-.432.26-.252.488-.558.686-.918.198-.36.367-.729.505-1.106.155.108.353.189.595.242-.172.216-.345.496-.517.837h.362c.224 0 .526-.008.906-.027v.486c-.38-.018-.682-.027-.906-.027h-.595z" mask="url(#prefix__d)"/>
        <path stroke="#21507D" stroke-width=".5" d="M51.83 17.558h1.656v-.675H51.83v.675zm0-1.107h1.656v-.648H51.83v.648zm-.466-1.08h2.614c-.018.324-.026.675-.026 1.053v.621c0 .306.008.621.026.945h-1.242c.051.306.146.612.284.918.328-.234.587-.486.777-.756.12.126.276.27.466.432-.501.288-.855.53-1.061.729.293.504.732.882 1.32 1.133-.208.126-.372.288-.493.486-.414-.288-.78-.692-1.1-1.215-.319-.521-.54-1.097-.66-1.727h-.44v2.321c.139-.071.354-.233.648-.485.051.18.12.342.207.485-.328.162-.734.432-1.217.81-.103-.18-.19-.333-.259-.459.104-.144.164-.368.182-.674v-3.456c0-.36-.01-.746-.026-1.16zm-2.226 1.755c.276.018.543.027.802.027s.518-.009.777-.027v.459c-.277-.018-.501-.027-.673-.027v.756c.293 0 .595-.009.905-.027v.513c-.31-.018-.612-.027-.905-.027v1.323c.259-.216.483-.423.673-.621.051.216.103.396.155.54-.104.053-.276.184-.517.39-.243.208-.45.42-.622.635-.103-.162-.216-.315-.336-.459.12-.161.19-.368.207-.62v-1.188c-.242 0-.518.01-.828.027v-.513c.344.018.62.027.828.027v-.756c-.104 0-.259.01-.466.027v-.459zm.259-.648c-.31.45-.535.765-.673.945-.138-.18-.259-.324-.363-.432.26-.252.488-.558.686-.918.198-.36.367-.729.505-1.106.155.108.353.189.595.242-.172.216-.345.496-.517.837h.362c.224 0 .526-.008.906-.027v.486c-.38-.018-.682-.027-.906-.027h-.595z" mask="url(#prefix__d)"/>
        <path fill="#215383" d="M58.284 15.29c.052-.035.182-.108.389-.215.086.161.168.31.246.445.077.135.168.275.271.419-.224.072-.37.144-.44.216-.086-.18-.241-.469-.466-.864zm1.709-.35c.103.072.301.161.595.27-.155.198-.276.369-.363.513-.086.144-.206.36-.362.647.414 0 .768-.008 1.061-.027v.46c-.293-.019-.56-.028-.802-.028h-.517c-.018.648-.035 1.107-.052 1.377h.75c.224 0 .474-.01.75-.027v.459c-.276-.018-.526-.027-.75-.027h-.673c.104.486.311.913.621 1.282s.656.599 1.036.689c-.121.107-.212.21-.272.31-.06.099-.1.202-.116.31-.363-.252-.665-.536-.906-.85-.242-.315-.44-.715-.596-1.202-.12.415-.271.788-.452 1.121-.182.333-.428.661-.738.985-.052-.072-.13-.148-.233-.23-.103-.08-.207-.139-.31-.175.189-.108.361-.243.517-.405.155-.161.293-.337.414-.526.12-.189.216-.396.285-.62.068-.225.12-.455.155-.69h-.31c-.277 0-.579.01-.906.028v-.459c.327.018.63.027.906.027h.336c.034-.504.052-.963.052-1.377h-.233c-.242 0-.535.01-.88.027v-.459c.345.019.638.027.88.027h.62c.225-.521.39-.999.493-1.43zm-3.78 4.616c.19-.036.458-.09.803-.162v-.837h-.802v.999zm0-1.404h.803v-1.053h-.802v1.053zm0-1.458h.803v-.918h-.802v.918zm-.957-1.35c.207.019.414.027.622.027h1.449c.207 0 .43-.008.673-.027v.46c-.19-.018-.363-.028-.518-.028v3.51c.19-.054.362-.1.518-.135-.035.234-.043.387-.026.459-.207.036-.371.072-.492.108v.594c0 .27.009.566.026.89h-.544c.035-.324.052-.62.052-.89v-.487c-.19.037-.431.1-.724.19-.294.09-.596.188-.906.297-.018-.109-.078-.306-.182-.594.104 0 .285-.027.544-.081v-3.86c-.172 0-.337.018-.492.053v-.486z" mask="url(#prefix__d)"/>
        <path stroke="#21507D" stroke-width=".5" d="M58.284 15.29c.052-.035.182-.108.389-.215.086.161.168.31.246.445.077.135.168.275.271.419-.224.072-.37.144-.44.216-.086-.18-.241-.469-.466-.864zm1.709-.35c.103.072.301.161.595.27-.155.198-.276.369-.363.513-.086.144-.206.36-.362.647.414 0 .768-.008 1.061-.027v.46c-.293-.019-.56-.028-.802-.028h-.517c-.018.648-.035 1.107-.052 1.377h.75c.224 0 .474-.01.75-.027v.459c-.276-.018-.526-.027-.75-.027h-.673c.104.486.311.913.621 1.282s.656.599 1.036.689c-.121.107-.212.21-.272.31-.06.099-.1.202-.116.31-.363-.252-.665-.536-.906-.85-.242-.315-.44-.715-.596-1.202-.12.415-.271.788-.452 1.121-.182.333-.428.661-.738.985-.052-.072-.13-.148-.233-.23-.103-.08-.207-.139-.31-.175.189-.108.361-.243.517-.405.155-.161.293-.337.414-.526.12-.189.216-.396.285-.62.068-.225.12-.455.155-.69h-.31c-.277 0-.579.01-.906.028v-.459c.327.018.63.027.906.027h.336c.034-.504.052-.963.052-1.377h-.233c-.242 0-.535.01-.88.027v-.459c.345.019.638.027.88.027h.62c.225-.521.39-.999.493-1.43zm-3.78 4.616c.19-.036.458-.09.803-.162v-.837h-.802v.999zm0-1.404h.803v-1.053h-.802v1.053zm0-1.458h.803v-.918h-.802v.918zm-.957-1.35c.207.019.414.027.622.027h1.449c.207 0 .43-.008.673-.027v.46c-.19-.018-.363-.028-.518-.028v3.51c.19-.054.362-.1.518-.135-.035.234-.043.387-.026.459-.207.036-.371.072-.492.108v.594c0 .27.009.566.026.89h-.544c.035-.324.052-.62.052-.89v-.487c-.19.037-.431.1-.724.19-.294.09-.596.188-.906.297-.018-.109-.078-.306-.182-.594.104 0 .285-.027.544-.081v-3.86c-.172 0-.337.018-.492.053v-.486z" mask="url(#prefix__d)"/>
        <path fill="#215383" d="M65.102 18.962h1.45v-1.026h-1.45v1.026zm0-1.458h1.45v-.945h-1.45v.945zm-1.864 1.458h1.398v-1.026h-1.398v1.026zm0-1.458h1.398v-.945h-1.398v.945zm4.141 2.213c.173.145.363.244.57.298-.104.377-.203.62-.298.728-.095.108-.28.162-.556.162h-1.89c-.362.018-.552-.18-.569-.594v-.917h-1.398v.702h-.492c.018-.306.027-.968.027-1.984 0-1.017-.01-1.679-.027-1.985h1.89c0-.467-.009-.827-.025-1.08h.517c-.017.216-.026.577-.026 1.08h1.941c-.017.253-.026.779-.026 1.58 0 .8.009 1.363.026 1.687h-1.941v.729c0 .233.13.35.388.35h1.32c.259 0 .41-.058.453-.175.043-.117.082-.31.116-.58z" mask="url(#prefix__d)"/>
        <path stroke="#21507D" stroke-width=".5" d="M65.102 18.962h1.45v-1.026h-1.45v1.026zm0-1.458h1.45v-.945h-1.45v.945zm-1.864 1.458h1.398v-1.026h-1.398v1.026zm0-1.458h1.398v-.945h-1.398v.945zm4.141 2.213c.173.145.363.244.57.298-.104.377-.203.62-.298.728-.095.108-.28.162-.556.162h-1.89c-.362.018-.552-.18-.569-.594v-.917h-1.398v.702h-.492c.018-.306.027-.968.027-1.984 0-1.017-.01-1.679-.027-1.985h1.89c0-.467-.009-.827-.025-1.08h.517c-.017.216-.026.577-.026 1.08h1.941c-.017.253-.026.779-.026 1.58 0 .8.009 1.363.026 1.687h-1.941v.729c0 .233.13.35.388.35h1.32c.259 0 .41-.058.453-.175.043-.117.082-.31.116-.58z" mask="url(#prefix__d)"/>
        <path fill="#215383" d="M70.858 21.148c-.035-.216-.087-.432-.155-.648.379.037.616.023.712-.04.094-.063.142-.176.142-.338v-1.997H69.77c-.276 0-.57.009-.88.027v-.513c.31.018.604.027.88.027h1.786c0-.27-.01-.585-.026-.945.276-.144.535-.292.776-.445.242-.153.483-.329.725-.527H70.47c-.328 0-.621.01-.88.027v-.513c.345.019.63.028.854.028h3.597v.458c-.241.126-.513.293-.815.5-.302.207-.686.463-1.151.77v.647h1.682c.293 0 .63-.009 1.01-.027v.513c-.363-.018-.7-.027-1.01-.027h-1.682v2.24c0 .324-.104.536-.311.635-.207.099-.51.148-.906.148" mask="url(#prefix__d)"/>
        <path stroke="#21507D" stroke-width=".5" d="M70.858 21.148c-.035-.216-.087-.432-.155-.648.379.037.616.023.712-.04.094-.063.142-.176.142-.338v-1.997H69.77c-.276 0-.57.009-.88.027v-.513c.31.018.604.027.88.027h1.786c0-.27-.01-.585-.026-.945.276-.144.535-.292.776-.445.242-.153.483-.329.725-.527H70.47c-.328 0-.621.01-.88.027v-.513c.345.019.63.028.854.028h3.597v.458c-.241.126-.513.293-.815.5-.302.207-.686.463-1.151.77v.647h1.682c.293 0 .63-.009 1.01-.027v.513c-.363-.018-.7-.027-1.01-.027h-1.682v2.24c0 .324-.104.536-.311.635-.207.099-.51.148-.906.148z" mask="url(#prefix__d)"/>
        <path fill="#215383" d="M77.054 17.963c.38 0 .56-.009.544-.027.275.738.629 1.26 1.06 1.565.38-.323.734-.836 1.062-1.538h-2.2c-.328 0-.673.01-1.036.027v-.486c.363.018.682.027.958.027h.88v-1.134h-1.424c-.31 0-.655.01-1.034.027v-.486c.379.019.715.027 1.009.027h1.45c0-.378-.01-.71-.026-.998h.595c-.018.288-.026.62-.026.998h1.553c.275 0 .595-.008.957-.027v.486c-.362-.017-.682-.027-.957-.027h-1.553v1.134h1.604c-.224.63-.453 1.12-.685 1.471-.233.351-.454.617-.66.797.327.198.698.346 1.113.445.413.1.87.148 1.371.148-.19.27-.293.504-.31.702-.639-.108-1.126-.22-1.463-.337-.336-.118-.73-.32-1.178-.608-.448.288-.888.513-1.32.675-.431.162-.845.288-1.242.378-.069-.216-.216-.423-.44-.62.431-.037.833-.104 1.204-.203.37-.099.815-.283 1.333-.553-.432-.396-.811-1.017-1.14-1.863" mask="url(#prefix__d)"/>
        <path stroke="#21507D" stroke-width=".5" d="M77.054 17.963c.38 0 .56-.009.544-.027.275.738.629 1.26 1.06 1.565.38-.323.734-.836 1.062-1.538h-2.2c-.328 0-.673.01-1.036.027v-.486c.363.018.682.027.958.027h.88v-1.134h-1.424c-.31 0-.655.01-1.034.027v-.486c.379.019.715.027 1.009.027h1.45c0-.378-.01-.71-.026-.998h.595c-.018.288-.026.62-.026.998h1.553c.275 0 .595-.008.957-.027v.486c-.362-.017-.682-.027-.957-.027h-1.553v1.134h1.604c-.224.63-.453 1.12-.685 1.471-.233.351-.454.617-.66.797.327.198.698.346 1.113.445.413.1.87.148 1.371.148-.19.27-.293.504-.31.702-.639-.108-1.126-.22-1.463-.337-.336-.118-.73-.32-1.178-.608-.448.288-.888.513-1.32.675-.431.162-.845.288-1.242.378-.069-.216-.216-.423-.44-.62.431-.037.833-.104 1.204-.203.37-.099.815-.283 1.333-.553-.432-.396-.811-1.017-1.14-1.863z" mask="url(#prefix__d)"/>
        <path fill="#215383" d="M84.958 18.07c.19-.089.38-.17.57-.242.086.162.172.351.258.567.086.216.173.414.26.594-.19.072-.38.153-.57.243-.07-.27-.242-.657-.518-1.161zm.31-.944c-.275 0-.552.01-.827.027v-.513c.275.018.56.027.853.027h1.553v-.783c0-.233-.017-.459-.051-.675h.595c-.035.235-.052.478-.052.73v.728h.31c.277 0 .5-.009.674-.027v.486c-.156-.018-.38-.027-.673-.027h-.311v3.186c.017.36-.095.593-.336.701-.242.108-.492.162-.75.162-.052-.216-.13-.423-.234-.62.38.017.612 0 .7-.055.085-.053.128-.17.128-.35v-2.997h-1.579zm-1.475-2.133c.311.145.544.235.7.27-.122.108-.225.28-.311.513-.087.234-.182.486-.285.756v3.293c0 .54.009.963.026 1.27h-.544c.017-.27.026-.684.026-1.242v-2.484c-.293.468-.517.81-.673 1.026-.138-.198-.268-.333-.388-.405.26-.288.53-.702.815-1.242.285-.54.496-1.124.634-1.755z" mask="url(#prefix__d)"/>
        <path stroke="#21507D" stroke-width=".5" d="M84.958 18.07c.19-.089.38-.17.57-.242.086.162.172.351.258.567.086.216.173.414.26.594-.19.072-.38.153-.57.243-.07-.27-.242-.657-.518-1.161zm.31-.944c-.275 0-.552.01-.827.027v-.513c.275.018.56.027.853.027h1.553v-.783c0-.233-.017-.459-.051-.675h.595c-.035.235-.052.478-.052.73v.728h.31c.277 0 .5-.009.674-.027v.486c-.156-.018-.38-.027-.673-.027h-.311v3.186c.017.36-.095.593-.336.701-.242.108-.492.162-.75.162-.052-.216-.13-.423-.234-.62.38.017.612 0 .7-.055.085-.053.128-.17.128-.35v-2.997h-1.579zm-1.475-2.133c.311.145.544.235.7.27-.122.108-.225.28-.311.513-.087.234-.182.486-.285.756v3.293c0 .54.009.963.026 1.27h-.544c.017-.27.026-.684.026-1.242v-2.484c-.293.468-.517.81-.673 1.026-.138-.198-.268-.333-.388-.405.26-.288.53-.702.815-1.242.285-.54.496-1.124.634-1.755z" mask="url(#prefix__d)"/>
        <path fill="#215383" d="M92.656 15.398c.19-.054.37-.107.543-.161.224.773.54 1.38.945 1.822.405.44.763.733 1.074.877-.294.126-.483.297-.57.513-.604-.432-1.057-.931-1.358-1.498-.302-.567-.514-1.084-.634-1.553m-1.657 4.751c.777-.071 1.544-.152 2.304-.243-.121-.233-.277-.494-.466-.782.172-.108.327-.207.466-.297.172.252.362.571.57.958.206.387.361.688.465.905-.19.071-.371.161-.543.27-.07-.163-.165-.379-.285-.649-1 .09-1.726.176-2.174.257-.45.081-.768.166-.958.256-.087-.216-.19-.432-.31-.647.155-.055.314-.162.478-.324.164-.163.384-.504.66-1.026s.483-1.017.621-1.485c.224.144.449.27.673.378-.241.288-.522.72-.84 1.296-.32.576-.54.954-.66 1.133m.129-4.858c.19.107.396.198.621.27-.294.503-.626 1.057-.997 1.66s-.712 1.048-1.022 1.336c-.155-.162-.328-.297-.517-.405.327-.234.685-.634 1.073-1.201.389-.567.669-1.12.842-1.66" mask="url(#prefix__d)"/>
        <path stroke="#21507D" stroke-width=".5" d="M92.656 15.398c.19-.054.37-.107.543-.161.224.773.54 1.38.945 1.822.405.44.763.733 1.074.877-.294.126-.483.297-.57.513-.604-.432-1.057-.931-1.358-1.498-.302-.567-.514-1.084-.634-1.553zm-1.657 4.751c.777-.071 1.544-.152 2.304-.243-.121-.233-.277-.494-.466-.782.172-.108.327-.207.466-.297.172.252.362.571.57.958.206.387.361.688.465.905-.19.071-.371.161-.543.27-.07-.163-.165-.379-.285-.649-1 .09-1.726.176-2.174.257-.45.081-.768.166-.958.256-.087-.216-.19-.432-.31-.647.155-.055.314-.162.478-.324.164-.163.384-.504.66-1.026s.483-1.017.621-1.485c.224.144.449.27.673.378-.241.288-.522.72-.84 1.296-.32.576-.54.954-.66 1.133zm.13-4.858c.19.107.396.198.621.27-.294.503-.626 1.057-.997 1.66s-.712 1.048-1.022 1.336c-.155-.162-.328-.297-.517-.405.327-.234.685-.634 1.073-1.201.389-.567.669-1.12.842-1.66z" mask="url(#prefix__d)"/>
        <path fill="#215383" d="M97.428 19.42h1.916v-1.025h-1.916v1.025zm-.518-1.484h2.951c-.017.27-.026.54-.026.81v.594c0 .288.009.585.026.89h-.518v-.35h-1.915v.701h-.518c.017-.305.026-.584.026-.836v-.999c0-.216-.009-.486-.026-.81zm-.232-2.592c.31.019.603.028.88.028h3.778c-.017.377-.026.728-.026 1.052v4.13c-.017.234-.12.387-.31.46-.19.071-.475.134-.854.188 0-.144-.078-.35-.233-.62.397 0 .647-.019.75-.055.104-.035.156-.162.156-.378V15.83h-3.236c-.293 0-.595.01-.905.027v-.513zm-.31 1.377c.31.018.611.027.905.027h2.148c.207 0 .483-.009.828-.027v.513c-.328-.018-.595-.027-.802-.027h-2.174c-.294 0-.595.01-.906.027v-.513z" mask="url(#prefix__d)"/>
        <path stroke="#21507D" stroke-width=".5" d="M97.428 19.42h1.916v-1.025h-1.916v1.025zm-.518-1.484h2.951c-.017.27-.026.54-.026.81v.594c0 .288.009.585.026.89h-.518v-.35h-1.915v.701h-.518c.017-.305.026-.584.026-.836v-.999c0-.216-.009-.486-.026-.81zm-.232-2.592c.31.019.603.028.88.028h3.778c-.017.377-.026.728-.026 1.052v4.13c-.017.234-.12.387-.31.46-.19.071-.475.134-.854.188 0-.144-.078-.35-.233-.62.397 0 .647-.019.75-.055.104-.035.156-.162.156-.378V15.83h-3.236c-.293 0-.595.01-.905.027v-.513zm-.31 1.377c.31.018.611.027.905.027h2.148c.207 0 .483-.009.828-.027v.513c-.328-.018-.595-.027-.802-.027h-2.174c-.294 0-.595.01-.906.027v-.513z" mask="url(#prefix__d)"/>
    </g>
</svg>
