<svg xmlns="http://www.w3.org/2000/svg" xmlns:xlink="http://www.w3.org/1999/xlink" width="24" height="24" viewBox="0 0 24 24">
    <defs>
        <linearGradient id="b" x1="0%" y1="0%" y2="100%">
            <stop offset="0%" stop-color="#00276C"/>
            <stop offset="100%" stop-color="#009ADC"/>
        </linearGradient>
        <rect id="a" width="24" height="24" rx="2"/>
    </defs>
    <g fill="none" fill-rule="evenodd">
        <mask id="c" fill="#fff">
            <use xlink:href="#a"/>
        </mask>
        <use fill="url(#b)" xlink:href="#a"/>
        <g mask="url(#c)">
            <path fill="#ADD1E7" d="M17.41 8.128a8.833 8.833 0 0 1-.051.296c-.666 3.42-2.945 4.602-5.855 4.602h-1.482a.72.72 0 0 0-.712.61l-.758 4.81-.215 1.365a.38.38 0 0 0 .374.438h2.628a.632.632 0 0 0 .625-.533l.026-.134.495-3.14.031-.172a.632.632 0 0 1 .625-.534h.393c2.546 0 4.54-1.034 5.122-4.026.244-1.25.118-2.293-.526-3.027a2.507 2.507 0 0 0-.72-.555"/>
            <path fill="#E6EFF6" d="M16.714 7.85a5.329 5.329 0 0 0-.648-.143 8.285 8.285 0 0 0-1.306-.096H10.8a.632.632 0 0 0-.623.534l-.842 5.335-.025.155a.72.72 0 0 1 .712-.61h1.482c2.91 0 5.189-1.181 5.855-4.6.02-.102.036-.2.051-.297a3.595 3.595 0 0 0-.696-.278"/>
            <path fill="#FFF" d="M10.177 8.146a.63.63 0 0 1 .624-.534h3.959c.469 0 .906.03 1.306.095.27.043.537.106.797.19.197.066.38.143.548.231.198-1.263-.002-2.124-.685-2.903C15.973 4.367 14.613 4 12.873 4h-5.05a.722.722 0 0 0-.714.61L5.005 17.945a.434.434 0 0 0 .428.502h3.119l.783-4.967.842-5.334z"/>
        </g>
    </g>
</svg>
