<svg xmlns="http://www.w3.org/2000/svg" width="24" height="24" viewBox="0 0 24 24">
    <g fill="none" fill-rule="evenodd">
        <path d="M0 0h24v24H0z"/>
        <path fill="#555" fill-rule="nonzero" d="M21.625 20.188c.387 0 .713-.133.978-.398s.397-.59.397-.977V6.438c0-.387-.132-.713-.397-.978a1.329 1.329 0 0 0-.978-.397H11.312L9.25 3H2.375a1.34 1.34 0 0 0-.967.397c-.272.265-.408.591-.408.978v14.438c0 .386.136.712.408.977.272.265.595.398.967.398h19.25zm0-12.375H2.375V4.374h6.252l1.697 1.654.43.409h10.871v1.375zm0 11H2.375V9.188h19.25v9.624z"/>
    </g>
</svg>
