<svg xmlns="http://www.w3.org/2000/svg" width="24" height="24" viewBox="0 0 24 24">
    <g fill="none" fill-rule="evenodd">
        <path fill="#FFF" d="M-26-505h360v980H-26z"/>
        <g transform="translate(1 1)">
            <circle cx="11" cy="11" r="11" fill="#00256C"/>
            <path fill="#FFF" d="M14.01 4.588c.114.01.225.057.311.144l2.829 2.829a.5.5 0 0 1-.707.707L14.46 6.285V16.5a.5.5 0 0 1-1 0V6.26l-2.006 2.008a.5.5 0 0 1-.708-.707l2.829-2.829a.498.498 0 0 1 .31-.144zM8.11 17a.498.498 0 0 0 .311-.145l2.829-2.828a.5.5 0 0 0-.707-.707L8.56 15.303V5.088a.5.5 0 1 0-1 0v10.24L5.554 13.32a.5.5 0 1 0-.708.707l2.829 2.828a.498.498 0 0 0 .31.145z"/>
        </g>
    </g>
</svg>
