<svg xmlns="http://www.w3.org/2000/svg" xmlns:xlink="http://www.w3.org/1999/xlink" width="116" height="8" viewBox="0 0 116 8">
    <defs>
        <path id="b" d="M2 0h316a2 2 0 0 1 2 2v199H0V2a2 2 0 0 1 2-2z"/>
        <filter id="a" width="116.6%" height="126.4%" x="-7.7%" y="-9.2%" filterUnits="objectBoundingBox">
            <feOffset dx="2" dy="8" in="SourceAlpha" result="shadowOffsetOuter1"/>
            <feGaussianBlur in="shadowOffsetOuter1" result="shadowBlurOuter1" stdDeviation="7.5"/>
            <feComposite in="shadowBlurOuter1" in2="SourceAlpha" operator="out" result="shadowBlurOuter1"/>
            <feColorMatrix in="shadowBlurOuter1" values="0 0 0 0 0 0 0 0 0 0.0980392157 0 0 0 0 0.282352941 0 0 0 0.0772235577 0"/>
        </filter>
    </defs>
    <g fill="none" fill-rule="evenodd">
        <path fill="#FFF" d="M-122-542h360V926h-360z"/>
        <g transform="translate(-102 -50)">
            <use fill="#000" filter="url(#a)" xlink:href="#b"/>
            <path fill="#FFF" stroke="#D9DBE1" stroke-linejoin="square" d="M.5 200.5h319V2A1.5 1.5 0 0 0 318 .5H2A1.5 1.5 0 0 0 .5 2v198.5z"/>
        </g>
        <path fill="#767676" d="M0 5V4h108V0l8 5H0z"/>
    </g>
</svg>
