<svg xmlns="http://www.w3.org/2000/svg" width="44" height="44" viewBox="0 0 44 44">
    <g fill="none" fill-rule="evenodd">
        <path d="M0 0H44V44H0z"/>
        <g>
            <path stroke="#767676" stroke-width="1.5" d="M1 4.75c-.138 0-.25.112-.25.25v6c0 1.795 1.455 3.25 3.25 3.25h6c1.795 0 3.25-1.455 3.25-3.25V5c0-.138-.112-.25-.25-.25H1z" transform="translate(15 14)"/>
            <path fill="#767676" d="M3.75 5C3.336 5 3 4.664 3 4.25V.75c0-.414.336-.75.75-.75s.75.336.75.75v3.5c0 .414-.336.75-.75.75zM10.25 5c-.414 0-.75-.336-.75-.75V.75c0-.414.336-.75.75-.75s.75.336.75.75v3.5c0 .414-.336.75-.75.75z" transform="translate(15 14)"/>
        </g>
    </g>
</svg>
