<svg xmlns="http://www.w3.org/2000/svg" width="24" height="24" viewBox="0 0 24 24">
    <g fill="none" fill-rule="evenodd">
        <path fill="#FFF" d="M-402-797h1440V788H-402z"/>
        <g stroke="#D9DBE1" stroke-linejoin="square">
            <path fill="#F8F9FC" d="M-181.5-51.5V126a1.5 1.5 0 0 0 1.5 1.5h996a1.5 1.5 0 0 0 1.5-1.5V-51.5h-999z"/>
            <path d="M-181.5-51.5V126a1.5 1.5 0 0 0 1.5 1.5h996a1.5 1.5 0 0 0 1.5-1.5V-51.5h-999z"/>
        </g>
        <path fill="#000" d="M16.409 12.06h-.607l.346-1.463a.5.5 0 1 0-.972-.23l-.939 3.964-1.303-3.233-.003-.004a.499.499 0 0 0-.079-.12c-.01-.013-.017-.03-.029-.043-.009-.009-.023-.014-.033-.022a.51.51 0 0 0-.128-.085c-.002 0-.003-.002-.005-.003-.024-.01-.048-.008-.073-.013-.037-.009-.074-.02-.114-.02-.035 0-.068.01-.102.018-.028.005-.057.004-.085.015l-.006.004c-.033.013-.059.038-.088.058-.024.017-.052.03-.073.05-.003.002-.005.008-.008.012a.49.49 0 0 0-.102.153l-1.302 3.233-.94-3.965a.499.499 0 1 0-.972.231l.346 1.463h-.547a.5.5 0 0 0 0 1h.785l.525 2.215a.775.775 0 0 0 .75.556.78.78 0 0 0 .72-.48l1.099-2.728 1.106 2.742a.773.773 0 0 0 .713.466h.049c.33-.02.605-.239.709-.585l.518-2.186h.844a.5.5 0 0 0 0-1"/>
        <path stroke="#000" stroke-linecap="round" stroke-linejoin="round" d="M15.028 3.5l1.204 2.137-2.296.863"/>
        <path stroke="#000" stroke-linecap="round" d="M20.5 12.742a8 8 0 1 1-4.356-7.124"/>
    </g>
</svg>
