<svg xmlns="http://www.w3.org/2000/svg" width="24" height="24" viewBox="0 0 24 24">
    <g fill="none" fill-rule="evenodd">
        <path fill="#FFF" d="M-402-825h1440V760H-402z"/>
        <g stroke="#D9DBE1" stroke-linejoin="square">
            <path fill="#F8F9FC" d="M-181.5-79.5V98a1.5 1.5 0 0 0 1.5 1.5h996a1.5 1.5 0 0 0 1.5-1.5V-79.5h-999z"/>
            <path d="M-181.5-79.5V98a1.5 1.5 0 0 0 1.5 1.5h996a1.5 1.5 0 0 0 1.5-1.5V-79.5h-999z"/>
        </g>
        <g stroke="#000" stroke-linecap="round" stroke-linejoin="round" stroke-width=".938">
            <path d="M13.109 11.034h3.421M6.712 15.642L5.476 8.529c-.254-1.871.3-3.004 1.732-3.279"/>
            <path d="M10.75 10.532L9.843 7.14c-.445-1.658-2.199-2.197-3.263-1.726M14.74 13.463h-1.013c-1.295 0-2.327-.399-2.977-2.9M12.935 20.04h-1.57c-2.286 0-4.157-.762-4.653-4.398M19.69 16.214v-.503a2.248 2.248 0 0 0-2.25-2.249h-2.62M11.365 20.04h7.055"/>
        </g>
    </g>
</svg>
