<svg xmlns="http://www.w3.org/2000/svg" xmlns:xlink="http://www.w3.org/1999/xlink" width="64" height="56" viewBox="0 0 64 56">
    <defs>
        <path id="a" d="M26.667 0H64v29.333C64 44.061 52.06 56 37.333 56H0V26.667C0 11.939 11.94 0 26.667 0z"/>
    </defs>
    <g fill="none" fill-rule="evenodd">
        <g>
            <use fill="#117DE4" xlink:href="#a"/>
            <use fill="#118FE4" xlink:href="#a"/>
        </g>
        <path fill="#FFF" fill-rule="nonzero" d="M19.318 29.405c.36-.28.727-.584 2.453-.67.18-.009.36.009.529.086l3.105 1.003c.606-.284 2.903-1.36 5.608-2.617l-6.396-3.07c-.188-.091-.297-.246-.292-.415.005-.169.123-.318.316-.399l2.156-.906c.207-.087.536-.121.763-.077l9.826 1.924c2.022-.925 3.69-1.674 4.386-1.955.511-.205 1.132-.309 1.846-.309 1.823 0 2.619.308 2.885.764.01.017.713 1.917-3.347 4.044l-14.552 6.76c-.015.007-.083.018-1.318.498s-1.577.367-2.005.367c-.428 0-1.16-.432-1.211-.464l-4.953-3.44-.012-.013c-.176-.139-.148-.83.213-1.111z"/>
    </g>
</svg>
