<svg xmlns="http://www.w3.org/2000/svg" width="44" height="44" viewBox="0 0 44 44">
    <path fill="#1B3F94" fill-rule="nonzero" d="M23.846 27.216l-4.543-2.494a3.097 3.097 0 0 1-4.394-.01 3.145 3.145 0 0 1 0-4.423 3.097 3.097 0 0 1 4.394-.011l4.543-2.494a3.135 3.135 0 0 1 1.962-3.588 3.102 3.102 0 0 1 3.811 1.435 3.144 3.144 0 0 1-.861 4.004 3.097 3.097 0 0 1-4.06-.28l-4.543 2.493c.09.43.09.874 0 1.304l4.542 2.494a3.097 3.097 0 0 1 4.06-.28 3.144 3.144 0 0 1 .862 4.003 3.102 3.102 0 0 1-3.811 1.435 3.135 3.135 0 0 1-1.962-3.588z"/>
</svg>
