<svg xmlns="http://www.w3.org/2000/svg" width="16" height="16" viewBox="0 0 16 16">
    <g fill="none" fill-rule="evenodd">
        <path d="M0 0H16V16H0z"/>
        <path fill="#0064DE" fill-rule="nonzero" d="M11.467 13.632l1.2 1.026V15H3.333v-.342l1.2-1.026h-1.2c-.736 0-1.333-.613-1.333-1.369V4.737C2 3.225 3.194 2 4.667 2h6.666C12.806 2 14 3.225 14 4.737v7.526c0 .756-.597 1.369-1.333 1.369h-1.2zM7.333 8.158v-4.79H4.667c-.737 0-1.334.613-1.334 1.369v3.42h4zm1.334 0h4V4.737c0-.756-.597-1.369-1.334-1.369H8.667v4.79zM5 12.263c.552 0 1-.46 1-1.026 0-.567-.448-1.026-1-1.026s-1 .459-1 1.026.448 1.026 1 1.026zm6 0c.552 0 1-.46 1-1.026 0-.567-.448-1.026-1-1.026s-1 .459-1 1.026.448 1.026 1 1.026z"/>
    </g>
</svg>
