<svg xmlns="http://www.w3.org/2000/svg" width="132" height="44" viewBox="0 0 132 44">
    <g fill="none" fill-rule="evenodd">
        <path fill="#002F87" d="M62.391 21.62s.849-1.934 1.216-2.489c0 0 1.029 1.374 1.392 2.503 0 0-1.164.184-2.608-.014zm-24.193-1.466v-2.181s.024-1.62 1.35-1.62c1.325 0 1.157 1.575 1.173 1.781.009.197-.075 2.02-2.523 2.02zm4.141-5.443s-6.451.468-9.926.156c0 0-.414-.109-.525.354 0 0-.228.357.138.598.366.246 1.414.846 1.414 3.066v4.287s.208 2.353-1.463 3.241c0 0-.343.111-.16.578 0 0 .024.424.501.356.483-.068 3.183-.268 6.888-.023 0 0 .32.023.41-.178.092-.197.117-.22.117-.22s.317-.312-.16-.62c-.482-.31-1.282-.78-1.351-2.756-.069-1.98 0-2.026 0-2.026h.297s1.028-.085 1.714 1.428c0 0 1.326 3.107 1.533 3.485.206.379.593 1.173 2.037 1.043 1.438-.133 8.165-.6 15.295.021 0 0 .78.11 1.077-.621 0 0 1.237-3.218 1.533-3.731 0 0 2.604-.065 4.022-.043 0 0 .526.866.526 1.91 0 1.043-.935 1.29-.935 1.29s-.39.15-.206.62c0 0 .068.44.525.398.459-.045 4.552-.422 10.727-.045 0 0 .413.153.548-.377 0 0 .252-.418-.182-.623 0 0-1.626-.355-1.626-2.864 0-2.507.025-4.284.025-4.284s1.235 1.711 2.699 4.264c1.464 2.552 2.242 3.642 2.242 3.642s.73 1.375 2.17.64c1.441-.728 2.998-1.574 3.887-2.172 0 0 .345-.159.158-.578l-.133-.268s-.025-.156-.505-.197c0 0-1.074.242-1.095-1.247-.027-1.488-.093-3.594 0-5.754 0 0 .046-1.33 1.299-1.705 0 0 .456-.044.255-.577l-.139-.27s0-.221-.32-.175c-.321.047-2.103.199-4 .047 0 0-.412 0-.459.44 0 0-.115.4.207.535.322.13 1.441.53 1.509 2.242.067 1.708.09 4.081.09 4.081s-2.602-3.725-4.273-6.59c0 0-.275-.778-1.26-.708-.984.062-3.34.173-5.052.02 0 0-.482-.067-.554.466 0 0-.133.464.275.665 0 0 1.375.843 1.375 1.132 0 .288-.025 6.196-.025 6.196s.116 2.422-.548 2.111c0 0-.388.242-1.325-1.422-.939-1.666-2.149-4.042-4.119-8.66 0 0-.408-1.289-1.257-1.289 0 0-.504.025-1.028.307-.528.294-2.195 1.203-3.934 1.692 0 0-.454.132-.32.577 0 0-.068.333.434.512.504.176.938.373 1.074.62 0 0-.524 1.644-1.485 3.335-.959 1.682-2.194 4.482-5.74 4.482h-1.393s-.366.044-.366-.445v-3.576h.915s1.486-.307 2.193 1.559c0 0 .138.58.64.352 0 0 .572-.063.527-.621-.048-.55-.093-2.066.022-3.4 0 0 .047-.398-.411-.485 0 0-.363-.176-.64.11-.274.288-.845.977-2.149.977h-1.075v-3.33s-.022-.222.135-.246c.16-.023 2.152-.488 3.318.423 1.167.911 1.235 1.291 1.488 1.62 0 0 .226.556.82.176 0 0 .46-.065.231-.753-.23-.687-.3-.934-.686-2.665 0 0-.068-.733-.845-.665-.776.068-5.65.623-10.226.267 0 0-.479-.112-.57.375 0 0-.207.334.185.646 0 0 1.347.6 1.347 2.907v3.863s.23 3.068-.891 3.068c0 0-.48.2-1.304-1.377-.825-1.58-.87-1.622-.87-1.622s-.662-2.064-3.521-2.157c0 0 3.956-.641 3.59-3.528 0 0-.07-2.197-3.04-2.287h-.32zM96.32 19.272c1.231 1.78 1.39 2.614 1.39 2.614-.981.156-2.597-.024-2.597-.024.477-1.293 1.208-2.59 1.208-2.59zm10.318 3.746s.093 3.031-1.023 2.82c0 0-.388.254-1.32-1.48-.937-1.733-2.143-4.203-4.102-9.016 0 0-.411-1.342-1.254-1.342 0 0-.499.028-1.025.325-.525.303-2.187 1.25-3.914 1.759 0 0-.458.138-.323.596 0 0-.066.35.432.535.505.183.932.392 1.07.646 0 0-.522 1.712-1.479 3.47-.956 1.754-1.798 4.322-4.054 5.48 0 0-.437.093-.298.624.16.6.458.438.458.438 2.617-.279 3.415-.044 4.007 0 .594.044.503-.438.503-.438.16-.303-.045-.487-.045-.487l-.252-.326s-.982-.25.408-3.093c0 0 2.6-.07 4.013-.051 0 0 .523.904.523 1.99 0 1.085-.934 1.343-.934 1.343s-.385.162-.205.647c0 0 .068.46.525.415.458-.044 8.016-.371 14.17.02 0 0 .431.024.545-.368 0 0 .253-.486-.18-.764 0 0-1.208-.553-1.3-2.517-.089-1.966-.068-5.691-.068-5.691s-.092-2.08 1.206-2.723c0 0 .342-.164.163-.626 0 0-.095-.439-.503-.393-.406.048-4.718.277-6.747.024 0 0-.454-.024-.542.37 0 0-.23.37.16.672.382.298 1.385.992 1.385 3.145v3.996zM120.634 20.332v-2.298s.045-1.71 1.31-1.71c1.261 0 1.284 1.446 1.214 1.92-.061.474-.183 2.088-2.524 2.088zm3.953-5.836s-5.056.609-9.744.14c0 0-.596-.164-.668.469 0 0-.041.42.21.586.253.16 1.284.796 1.354 3 .068 2.202.115 1.57.068 4.573 0 0 .185 2.882-1.421 3.584 0 0-.417.098-.187.705 0 0 .138.47.53.308 0 0 3.767-.258 7.03.019 0 0 .368.143.48-.35 0 0 .302-.33-.16-.682-.46-.35-1.283-.961-1.379-2.437-.09-1.477-.066-2.648-.066-2.648h.32s1.082-.143 1.815 1.594c.735 1.735 1.24 2.998 1.24 2.998s.483 1.385 1.263 1.83c0 0 .323.308 1.517.168 0 0 1.956-.123 3.884-1.035 0 0 .436-.095.301-.609 0 0 .092-.398-.461-.517-.552-.115-.966-.656-1.354-1.454-.395-.793-.99-1.967-.99-1.967s-.806-2.04-3.424-2.064c0 0 3.607-.63 3.607-3.399 0-2.771-3.218-2.812-3.218-2.812h-.547z"/>
        <path fill="#FEFEFE" d="M30.771 21.445c0 4.109-3.333 7.44-7.444 7.44a7.443 7.443 0 1 1 7.444-7.44"/>
        <path fill="#E1251B" d="M26.569 16.931a5.489 5.489 0 0 1 3.772 6.3l-.007.046a6.26 6.26 0 0 1-1.123 2.622l-.01.01a7.336 7.336 0 0 0 1.57-4.54c0-4.071-3.3-7.369-7.372-7.369-1.854 0-3.55.683-4.845 1.818l-.018.013a5.1 5.1 0 0 0-1.658 3.771c0 .617.106 1.209.31 1.76l.013.023a3.245 3.245 0 0 0 2.959 1.902 3.248 3.248 0 0 0 3.25-3.245l-.009-1.4c0-.642.357-1.198.888-1.485l.006-.007a2.912 2.912 0 0 1 2.269-.22l.005.001"/>
        <path fill="#002F87" d="M18.02 26.216a7.826 7.826 0 0 0 5.916 2.67c1.942 0 3.719-.695 5.078-1.843l.017-.015a5.1 5.1 0 0 0 1.74-3.826c0-.626-.117-1.23-.325-1.785l-.014-.026c-.534-1.14-1.721-1.933-3.098-1.933-1.884 0-3.408 1.479-3.408 3.298l.008 1.414c0 .657-.373 1.222-.927 1.514l-.009.006c-.433.232-.929.36-1.456.36-.32 0-.629-.048-.92-.139h-.002c-2.353-.699-4.06-2.817-4.06-5.323 0-.362.033-.718.106-1.063l.006-.052a6.25 6.25 0 0 1 1.18-2.66l.01-.01a7.278 7.278 0 0 0-.835 7.949l-.065.048s-.3.224-.907-.453c-.605-.676-4.168-4.844-4.168-4.844s2.261-2.342 4.473-3.287c0 0 .578-.18.44-.679l-.09-.288s-.026-.315-.539-.247c-.512.066-2.932.247-5.353.018 0 0-.375 0-.512.3 0 0-.233.378 0 .604.231.225 1.072.79 1.072 1.553 0 0 .182.563-1.096 1.464-1.28.905-2.075 1.487-2.612 1.757l.027-2.117s-.07-1.778 1.26-2.614c0 0 .328-.132.208-.43l-.094-.217s-.07-.365-.463-.318c0 0-2.307.247-6.9.044 0 0-.295-.026-.418.203l-.09.18s-.164.406.09.588c.263.177 1.33.786 1.38 2.656 0 0 .113 3.534-.05 4.913-.163 1.369-.28 2.156-1.42 3.126 0 0-.301.224-.164.563l.165.29s.116.23.508.183c.398-.043 3.264-.312 6.899-.043 0 0 .25.09.37-.159l.164-.314s.185-.318-.165-.563c-.349-.252-1.28-.97-1.307-2.364-.017-1.399-.017-2.278-.017-2.278s.629.247 3.978 5.045c0 0 1.188 2.072 3.703.786 0 0 1.841-.968 2.608-1.597l.078-.045"/>
    </g>
</svg>
