<svg xmlns="http://www.w3.org/2000/svg" width="44" height="44" viewBox="0 0 44 44">
    <g fill="none" fill-rule="evenodd">
        <path d="M6 6h32v32H6z"/>
        <g fill="#234078">
            <path d="M29.534 15.7l-.006.01a9.547 9.547 0 0 1 2.806 6.114c.377 5.31-3.664 9.906-9.018 10.28A9.771 9.771 0 0 1 16.6 30.05l-.006.009a9.75 9.75 0 0 0 7.308 2.564c5.355-.373 9.396-4.975 9.02-10.277a9.553 9.553 0 0 0-3.388-6.646M12.308 26.645c-.31.173-.38.432-.22.83.141.36.375.518.618.417.197-.079.23-.246.147-.68l-.035-.17c-.074-.425-.096-.607-.042-.795a.581.581 0 0 1 .356-.415c.44-.167.851.1 1.098.71.27.664.127 1.16-.394 1.376l-.13-.325c.362-.153.457-.491.26-.973-.158-.39-.412-.564-.674-.458-.216.081-.265.28-.19.723l.034.192.03.165c.057.326.063.443.031.586a.548.548 0 0 1-.342.379c-.41.157-.808-.078-1.032-.632-.241-.602-.112-1.044.352-1.25l.133.32M12.03 23.168l1.477-1.227.01.45-1.252 1.024.405.444.879-.015.01.354-2.51.056-.007-.355.985-.025h.265l-.082-.09-.088-.088-1.112-1.184-.01-.474zM13.14 19.327l.968.334-.118.339-.969-.34-1.733.52.152-.409 1.07-.295.13-.04c.058-.015.093-.023.19-.043-.085-.1-.11-.12-.194-.245l-.667-.885.14-.395 1.03 1.459M14.838 14.767l-.53.64 1.58 1.286-.377.456-1.587-1.279-.523.637-.36-.292 1.436-1.736zM18.22 12.416l-1.263.73.267.458 1.162-.67.214.363-1.157.674.311.526 1.287-.749.237.402-1.808 1.044-1.268-2.147 1.784-1.03zM21.64 12.098a4.274 4.274 0 0 1-.27-.504c-.02.176-.047.306-.104.566l-.105.471.729-.115-.25-.418zm1.436 1.276l-.66.05-.321-.54-1.014.161-.137.609-.628.16.663-2.715.615-.096 1.482 2.37zM27.097 14.174l-.525-.2.204-.737c.018-.085.052-.203.096-.36.043-.153.077-.277.107-.365.03-.095.06-.203.096-.312l.057-.173c-.145.251-.206.34-.34.54-.058.09-.112.168-.152.225l-.714.991-.456-.12-.143-1.186c-.011-.06-.014-.144-.022-.264-.014-.156-.019-.274-.025-.356a10.393 10.393 0 0 1-.001-.3l-.06.3c-.075.328-.109.467-.209.86l-.21.8-.552-.09.625-2.427.847.16.117 1.15c.032.273.037.493.026.813.095-.18.13-.24.235-.406.073-.117.14-.21.195-.295l.66-.94.8.27-.656 2.422"/>
            <path d="M27.04 22.183c.724-.483 1.328-.737 1.702-.725.22.003.487.072.487.339 0 .282-.266.513-.79.701-.464.16-1.169.206-1.937.116a5.7 5.7 0 0 1 .537-.43m-10.17.88c-.447-.03-.667-.207-.667-.551 0-.046.028-1.128 2.544-1.255a6.074 6.074 0 0 1 1.096.028c-.025 0-.282.244-.282.244l-.162.14c-.606.548-1.618 1.458-2.53 1.394m5.444-4.11c-.306.267-.91.84-1.49 1.391l-.659.628a9.115 9.115 0 0 0-1.62-.145c-1.221 0-2.341.333-2.85.85-.196.197-.29.413-.287.637.014.588.693.88.897.959 1.087.397 1.995.284 2.948-.385.53-.363 1.167-.948 1.662-1.42.387.085.825.201 1.296.34l.432.12c-.56.551-1.136 1.126-1.675 1.596l-.04.038c-.746.646-1.284 1.119-2.065 1.29-.546.122-.933.008-1.064-.07-.01 0-.025.018-.025.018.448.376.875.582 1.607.517.7-.058 1.509-.494 2.33-1.26l1.114-1.078.782-.772 1.578.458.032.009c-.021 0-.98.938-.98.938l-.839.828c-.86.827-1.327 1.254-1.828 1.606-.828.582-1.54.887-2.168.926-.323.025-.79 0-1.18-.223-.017-.005-.04.017-.04.017.42.357.943.79 1.836.765 1.013-.032 1.91-.507 3.306-1.78.635-.575 1.265-1.224 1.822-1.796l1.037-1.041c.683.15 1.289.213 1.968.197.982-.02 1.821-.484 1.832-1.013.011-.395-.318-.608-.513-.732a2.292 2.292 0 0 0-1.208-.348c-.737 0-1.508.325-2.284.957l-.52.451c.006 0-.189-.046-.189-.046l-1.443-.405c.426-.39.789-.729 1.114-1.017.79-.696 1.662-.98 2.175-1.016.368-.02 1.015.01 1.288.2a.13.13 0 0 0 .025-.031c-.71-.6-1.32-.682-1.828-.682-.5 0-1.301.154-2.28.91-.399.304-.922.82-1.465 1.364l-.729-.221-.176-.053-.768-.233c.018 0 .435-.41.435-.41.52-.5 1.008-.975 1.387-1.294 1.383-1.152 2.258-1.302 2.862-1.307.664-.003 1.192.135 1.564.405.012 0 .03-.025.03-.025-.778-.698-1.336-.919-2.3-.928-.847-.006-1.86.462-2.846 1.317M28.04 12.19a.596.596 0 0 1 .776-.352.61.61 0 0 1 .351.788.592.592 0 0 1-.776.35.609.609 0 0 1-.351-.786zm1.021.45a.523.523 0 0 0-.232-.692.51.51 0 0 0-.685.228.528.528 0 0 0 .234.695.51.51 0 0 0 .683-.231zm-.346.192l-.1-.05-.04-.366-.1-.05-.136.276-.08-.042.288-.595.257.127c.108.055.197.137.134.265-.057.117-.16.12-.266.068l.043.367zm-.1-.498c.072.035.195.115.241.023.03-.064-.044-.116-.107-.148l-.159-.08-.074.154.099.05z"/>
        </g>
    </g>
</svg>
