<svg xmlns="http://www.w3.org/2000/svg" width="48" height="48" viewBox="0 0 48 48">
    <g fill="none" fill-rule="evenodd">
        <path fill="#11277B" d="M12 39h21V11H12zM5 11a3 3 0 0 0-3 3v22a3 3 0 0 0 3 3h5V11H5zM40 11h-5v28h5a3 3 0 0 0 3-3V14a3 3 0 0 0-3-3M16 10c0-1.654 1.346-3 3-3h7c1.654 0 3 1.346 3 3v1h2v-1c0-2.757-2.243-5-5-5h-7c-2.757 0-5 2.243-5 5v1h2v-1z"/>
        <path fill="#66E2FF" d="M38 23c4.062 0 7.354 3.512 7.354 7.844 0 3.219-4.057 9.5-6.145 12.519a1.466 1.466 0 0 1-2.418 0c-2.088-3.019-6.145-9.3-6.145-12.519C30.646 26.512 33.938 23 38 23"/>
        <path fill="#FFF" d="M41.26 33.87c-.85.85-1.897 1.274-3.138 1.274-1.195 0-2.229-.425-3.103-1.275-.873-.85-1.309-1.896-1.309-3.137 0-1.24.436-2.287 1.31-3.137.873-.85 1.907-1.276 3.102-1.276 1.241 0 2.287.425 3.137 1.276.85.85 1.275 1.896 1.275 3.137s-.425 2.286-1.275 3.137"/>
    </g>
</svg>
