<svg xmlns="http://www.w3.org/2000/svg" xmlns:xlink="http://www.w3.org/1999/xlink" width="48" height="48" viewBox="0 0 48 48">
    <defs>
        <path id="a" d="M0 36h31.091A4.91 4.91 0 0 0 36 31.091V0H4.909A4.91 4.91 0 0 0 0 4.909V36z"/>
    </defs>
    <g fill="none" fill-rule="evenodd">
        <g transform="translate(6 6)">
            <mask id="b" fill="#fff">
                <use xlink:href="#a"/>
            </mask>
            <use fill="#11277B" xlink:href="#a"/>
            <path fill="#64DDFF" d="M32 0h4v36h-4z" mask="url(#b)"/>
        </g>
        <path fill="#FFF" d="M14.196 24.665c.223-.157.448-.328 1.513-.377a.739.739 0 0 1 .326.049l1.916.563c.374-.159 1.791-.764 3.46-1.471l-3.945-1.728c-.117-.051-.184-.138-.18-.232.002-.095.075-.179.194-.225l1.33-.51c.127-.048.33-.068.471-.043l6.061 1.082a99.973 99.973 0 0 1 2.707-1.099c.315-.115.698-.174 1.138-.174 1.125 0 1.615.174 1.78.43.006.009.44 1.079-2.065 2.274l-8.977 3.803c-.009.004-.05.011-.813.28-.763.27-.974.206-1.237.206-.265 0-.716-.243-.747-.261l-3.056-1.934-.007-.008c-.109-.078-.092-.467.131-.625"/>
    </g>
</svg>
