<svg xmlns="http://www.w3.org/2000/svg" width="16" height="16" viewBox="0 0 16 16">
    <g fill="none" fill-rule="evenodd">
        <path fill="#FFF" d="M-1184-662H256V771h-1440z"/>
        <g transform="translate(-964 -284)">
            <rect width="999" height="388" x=".5" y=".5" stroke="#D9DBE1" rx="2"/>
            <path fill="#969696" fill-rule="nonzero" d="M972 284a.8.8 0 0 1 .8.8v2.4a.8.8 0 1 1-1.6 0v-2.4a.8.8 0 0 1 .8-.8zm0 12a.8.8 0 0 1 .8.8v2.4a.8.8 0 1 1-1.6 0v-2.4a.8.8 0 0 1 .8-.8zm8-4a.8.8 0 0 1-.8.8h-2.4a.8.8 0 1 1 0-1.6h2.4a.8.8 0 0 1 .8.8zm-12 0a.8.8 0 0 1-.8.8h-2.4a.8.8 0 1 1 0-1.6h2.4a.8.8 0 0 1 .8.8zm9.657 5.657a.8.8 0 0 1-1.131 0l-1.697-1.697a.8.8 0 0 1 1.131-1.131l1.697 1.696a.8.8 0 0 1 0 1.132zm-8.486-8.486a.8.8 0 0 1-1.131 0l-1.696-1.696a.8.8 0 0 1 1.131-1.132l1.696 1.697a.8.8 0 0 1 0 1.131zm-2.827 8.486a.8.8 0 0 1 0-1.131l1.697-1.697a.8.8 0 1 1 1.131 1.131l-1.696 1.697a.8.8 0 0 1-1.132 0zm8.485-8.486a.8.8 0 0 1 0-1.131l1.696-1.697a.8.8 0 0 1 1.132 1.131l-1.697 1.697a.8.8 0 0 1-1.131 0z"/>
        </g>
    </g>
</svg>
