<svg xmlns="http://www.w3.org/2000/svg" width="64" height="64" viewBox="0 0 64 64">
    <g fill="none" fill-rule="evenodd" transform="translate(9.6 13.333)">
        <path fill="#8BE0F8" d="M2.73 29.19h8.32v5.21a.8.8 0 0 1-.8.8H3.53a.8.8 0 0 1-.8-.8v-5.21zM32.683 29.19h8.32v5.21a.8.8 0 0 1-.8.8h-6.72a.8.8 0 0 1-.8-.8v-5.21z"/>
        <path fill="#00256C" d="M3.551 12.917C5.391 8.07 6.791 4.621 7.75 2.572 8.62.713 11.305.859 22.466.859c11.566 0 12.795-.59 14.427 2.328.938 1.68 2.47 4.922 4.595 9.73l2.245 6.48v9.946a.8.8 0 0 1-.8.8H1.867a.8.8 0 0 1-.8-.8v-9.946l2.484-6.48z"/>
        <circle cx="9.6" cy="21.333" r="3.2" fill="#FFF"/>
        <circle cx="35.2" cy="21.333" r="3.2" fill="#FFF"/>
        <rect width="7.467" height="4.267" y="11.733" fill="#00256C" rx=".8"/>
        <rect width="7.467" height="4.267" x="37.333" y="11.733" fill="#00256C" rx=".8"/>
    </g>
</svg>
