<svg xmlns="http://www.w3.org/2000/svg" xmlns:xlink="http://www.w3.org/1999/xlink" width="64" height="64" viewBox="0 0 64 64">
    <defs>
        <path id="a" d="M0 0h50.452v34.188H0z"/>
    </defs>
    <g fill="none" fill-rule="evenodd">
        <g transform="translate(5.333 10.667)">
            <mask id="b" fill="#fff">
                <use xlink:href="#a"/>
            </mask>
            <path fill="#66E2FF" d="M44.323 1.25l6.13 16.84L6.22 34.187.092 17.348c-.423-1.163.648-2.62 2.393-3.255L40.397.295c1.744-.636 3.503-.208 3.926.954" mask="url(#b)"/>
        </g>
        <path fill="#11277B" d="M56.83 26.437a3.361 3.361 0 0 0-3.362-3.362H13.123a3.361 3.361 0 0 0-3.362 3.362v18.201H56.83V26.437z"/>
        <path fill="#FFF" d="M23.557 40.233h-7.42a1.333 1.333 0 0 1-1.332-1.333v-4.058c0-.737.596-1.333 1.333-1.333h7.419c.736 0 1.333.596 1.333 1.333V38.9c0 .736-.597 1.333-1.333 1.333"/>
        <path fill="#11277B" d="M9.76 49.971a3.361 3.361 0 0 0 3.362 3.362h40.346a3.361 3.361 0 0 0 3.36-3.362v-2.666H9.762v2.666z"/>
    </g>
</svg>
