<svg xmlns="http://www.w3.org/2000/svg" width="64" height="64" viewBox="0 0 64 64">
    <g fill="none" fill-rule="evenodd">
        <path fill="#11277B" d="M14.8 16.103h39.6c2.651 0 4.8 1.964 4.8 4.387V48.28c0 2.423-2.149 4.388-4.8 4.388H9.6c-2.651 0-4.8-1.965-4.8-4.388V19.906c0-2.1 1.863-3.803 4.16-3.803h5.84z"/>
        <path stroke="#00377A" stroke-width="2" d="M22.4 17.341v-4.129c0-1.18.955-2.135 2.133-2.135h14.934c1.178 0 2.133.956 2.133 2.135v4.532"/>
        <path stroke="#FFF" stroke-linecap="square" stroke-width="2" d="M16.8 51.412V16.836M47.2 51.412V16.836"/>
        <g>
            <path fill="#66E2FF" d="M53.333 32L64 35.51v14.165c0 4.007-3.556 7.448-10.667 10.325-7.11-2.877-10.666-6.318-10.666-10.325V35.51L53.333 32z"/>
            <path stroke="#FFF" stroke-width="2" d="M49.333 45.333L52.573 48l6.094-5.333"/>
        </g>
    </g>
</svg>
