<svg xmlns="http://www.w3.org/2000/svg" xmlns:xlink="http://www.w3.org/1999/xlink" width="64" height="64" viewBox="0 0 64 64">
    <defs>
        <path id="a" d="M.686 0h13.866v21.333H.686z"/>
    </defs>
    <g fill="none" fill-rule="evenodd">
        <path fill="#8BE0F8" d="M16 16.295l28.8-8.028V45.6H16z"/>
        <path fill="#00256C" d="M16 16.8h27.733a3.2 3.2 0 0 1 3.2 3.2v34.133H19.2a3.2 3.2 0 0 1-3.2-3.2V16.8z"/>
        <g transform="translate(23.848 25.333)">
            <mask id="b" fill="#fff">
                <use xlink:href="#a"/>
            </mask>
            <path fill="#FFF" stroke="#FFF" stroke-linejoin="round" stroke-width=".5" d="M8.788 12.145l4.698 2.323v-1.3L8.898 9.073l-.357-4.79c0-.598-.453-1.083-1.012-1.083-.559 0-1.011.485-1.011 1.083l-.37 4.963-4.396 3.922v1.3l4.524-2.236.242 3.753c0 .05.007.099.013.148l-1.367 1.709c-.112.14.026.346.186.278l2.118-.905a.153.153 0 0 1 .122 0l2.118.905c.16.068.298-.138.186-.278l-1.368-1.71c.007-.048.015-.096.015-.147l.247-3.84z" mask="url(#b)"/>
        </g>
    </g>
</svg>
