<svg xmlns="http://www.w3.org/2000/svg" width="64" height="64" viewBox="0 0 64 64">
    <g fill="none" fill-rule="evenodd">
        <path fill="#11277B" d="M54.43 55.883l-4.077-37.217H15.686l-3.681 37.23a1.332 1.332 0 0 0 1.329 1.437h39.768c.783 0 1.396-.67 1.328-1.45"/>
        <path fill="#64DDFF" d="M27.884 14.667c0-2.206 1.795-4 4-4h2.667c2.205 0 4 1.794 4 4v4h2.667v-4A6.674 6.674 0 0 0 34.55 8h-2.667a6.674 6.674 0 0 0-6.666 6.667v4h2.666v-4z"/>
        <path fill="#FFF" d="M33.865 39.577l2.1 6.205 1.15-1.15-.436-7.673 3.917-4.549c.528-.528.557-1.359.064-1.852-.495-.493-1.323-.465-1.852.064l-4.713 4.059-7.352-.419-1.15 1.15 5.975 2.022-3.103 3.53c-.045.046-.08.094-.118.143l-2.72.303c-.222.024-.283.328-.082.41l2.672 1.073c.05.018.088.057.108.106l1.072 2.672c.082.202.386.142.411-.08l.301-2.72c.05-.038.1-.073.144-.118l3.612-3.176z"/>
    </g>
</svg>
