<svg xmlns="http://www.w3.org/2000/svg" width="64" height="64" viewBox="0 0 64 64">
    <g fill="none" fill-rule="evenodd">
        <path fill="#8BE0F8" d="M46.058 29.693l-15.391-2.226v26.666H48.8V32.86a3.2 3.2 0 0 0-2.742-3.167z"/>
        <path fill="#00256C" d="M12.533 14.702L36 10.4v43.733H16.533a4 4 0 0 1-4-4V14.702z"/>
        <g fill="#FFF">
            <path d="M17.867 20h3.014v3.014h-3.014zM17.867 25.426h3.014v3.014h-3.014zM23.293 20h3.014v3.014h-3.014zM23.293 25.426h3.014v3.014h-3.014zM28.719 20h3.014v3.014h-3.014zM28.719 25.426h3.014v3.014h-3.014zM17.867 30.852h3.014v3.014h-3.014zM23.293 30.852h3.014v3.014h-3.014zM28.719 30.852h3.014v3.014h-3.014z"/>
        </g>
    </g>
</svg>
