<svg xmlns="http://www.w3.org/2000/svg" width="16" height="16" viewBox="0 0 16 16">
    <g fill="none" fill-rule="evenodd">
        <path fill="#FFF" fill-rule="nonzero" stroke="#FFF" stroke-width=".1" d="M13.445 6.185v6.741c0 1.142-.93 1.556-1.555 1.556H2.556c-1.142 0-1.556-.93-1.556-1.556V3.592c0-1.141.93-1.555 1.556-1.555h6.222c.287 0 .519.232.519.518 0 .286-.232.519-.519.519H2.556c-.234.006-.519.1-.519.518v9.334c.006.234.101.519.519.519h9.334c.233-.006.518-.1.518-.519v-6.74c0-.287.232-.52.519-.52.287 0 .518.233.518.52zM13.963 1h-3.11c-.287 0-.52.232-.52.519 0 .286.233.518.52.518h1.79L6.35 7.88c-.21.195-.222.523-.027.733.102.11.24.166.38.166.126 0 .253-.046.353-.139l6.388-5.932V4.63c0 .286.232.518.518.518.287 0 .519-.232.519-.518V1.519c0-.287-.232-.519-.519-.519z"/>
    </g>
</svg>
