<svg xmlns="http://www.w3.org/2000/svg" width="48" height="48" viewBox="0 0 48 48">
    <g fill="none" fill-rule="evenodd">
        <path stroke="#000" stroke-width="2.5" d="M14 11.25A4.75 4.75 0 0 0 9.25 16v20.2c0 .304.246.55.55.55h28.4a.55.55 0 0 0 .55-.55V11.8a.55.55 0 0 0-.55-.55H14z"/>
        <g fill="#000" transform="translate(31 18)">
            <ellipse cx="1" cy="12.071" rx="1" ry="1"/>
            <ellipse cx="1" cy="8.357" rx="1" ry="1"/>
            <ellipse cx="1" cy="4.643" rx="1" ry="1"/>
            <ellipse cx="1" cy=".929" rx="1" ry="1"/>
        </g>
        <path fill="#000" fill-rule="nonzero" d="M15.15 25.57c.17-.135.343-.281 1.157-.323a.517.517 0 0 1 .25.042l1.465.483c.285-.137 1.37-.655 2.646-1.262l-3.018-1.48c-.089-.044-.14-.118-.138-.2.002-.081.058-.153.15-.192l1.016-.437a.696.696 0 0 1 .36-.037l4.636.927a69.616 69.616 0 0 1 2.07-.942c.24-.099.533-.149.87-.149.86 0 1.236.149 1.361.368.005.009.337.925-1.579 1.95l-6.865 3.26c-.007.003-.04.008-.622.24-.583.23-.744.176-.946.176-.202 0-.547-.208-.571-.223l-2.337-1.659-.005-.006c-.083-.067-.07-.4.1-.536z"/>
    </g>
</svg>
