<svg xmlns="http://www.w3.org/2000/svg" width="72" height="72" viewBox="0 0 72 72">
    <g fill="none" fill-rule="evenodd" stroke="#000" transform="translate(13 17)">
        <path fill="#000" fill-rule="nonzero" stroke-linejoin="round" stroke-width="1.4" d="M0 24.23h3.772C4.042 14.157 12.395 5.99 22.5 5.99c9.97 0 18.323 8.167 18.728 18.24H45V26H0v-1.77zm5.524 0h33.952c-.27-9.12-7.814-16.47-16.976-16.47-9.162 0-16.707 7.35-16.976 16.47zM22.5 0c1.078 0 2.156.953 2.156 2.178 0 1.089-1.078 2.042-2.156 2.042-1.213 0-2.156-.953-2.156-2.042C20.344.953 21.287 0 22.5 0z"/>
        <rect width="42" height="7" x="1.5" y="30.5" stroke-width="3" rx="3.5"/>
    </g>
</svg>
