<svg xmlns="http://www.w3.org/2000/svg" width="72" height="72" viewBox="0 0 72 72">
    <g fill="none" fill-rule="evenodd" stroke="#000" stroke-width="3.6">
        <path stroke-linecap="round" d="M26.133 49.5c-1.21 1.29-2.332 3.763-3.368 7.418a3.6 3.6 0 0 0 3.463 4.582H49.5"/>
        <path stroke-linecap="square" d="M33.486 49.5h19.277c.683 0 1.237-.545 1.237-1.218a1.2 1.2 0 0 0-.04-.31l-.682-2.557c-.642-2.406-2.852-4.084-5.379-4.084H31.781a2.466 2.466 0 0 1-2.418-1.918c-2.27-10.27-3.95-17.849-5.042-22.736-.931-4.172-3.226-6.23-6.884-6.176-1.366.02-2.457 1.128-2.437 2.473.003.152.02.304.05.454l7.128 34.126a2.466 2.466 0 0 0 2.424 1.946h2.142"/>
    </g>
</svg>
