<svg xmlns="http://www.w3.org/2000/svg" width="72" height="72" viewBox="0 0 72 72">
    <g fill="none" fill-rule="evenodd" transform="translate(21 9)">
        <path fill="#000" fill-rule="nonzero" d="M13.794 27.248c.334-.237.673-.493 2.27-.565.168-.008.333.007.49.072l2.873.846c.56-.24 2.686-1.147 5.19-2.208l-5.919-2.59c-.174-.077-.275-.207-.27-.35.004-.142.113-.268.292-.337l1.995-.764c.192-.073.496-.102.707-.065l9.092 1.623c1.872-.78 3.416-1.413 4.06-1.649.472-.174 1.047-.261 1.707-.261 1.687 0 2.424.26 2.67.644.01.015.66 1.618-3.097 3.413L22.387 30.76c-.014.005-.076.015-1.22.42-1.142.404-1.458.31-1.855.31-.396 0-1.074-.365-1.12-.392l-4.584-2.902-.01-.011c-.164-.118-.137-.702.196-.938z"/>
        <path stroke="#000" stroke-linecap="round" stroke-width="3" d="M30 25.541v22.775C30 51.456 27.558 54 24.545 54H5.455C2.442 54 0 51.455 0 48.316V5.684C0 2.544 2.442 0 5.455 0h19.09C27.558 0 30 2.545 30 5.684v9.364"/>
        <circle cx="15" cy="47.25" r="2.25" fill="#000"/>
    </g>
</svg>
