<svg xmlns="http://www.w3.org/2000/svg" width="64" height="64" viewBox="0 0 64 64">
    <g fill="none" fill-rule="evenodd">
        <path fill="#8BE0F8" d="M4.869 6.856c-.14.273-.218.582-.218.909v17.47c0 1.105.895 2 2 2H38.3v.038c1.207.031 2.176 1.064 2.176 2.333 0 1.289-1 2.333-2.233 2.333l.057-.002v.002H32.54V32H3.366v-.057c-.18.037-.369.057-.56.057-1.299 0-2.39-.898-2.711-2.117l-.039-.168H0v-19.43l.056.001C.02 10.101 0 9.91 0 9.714c0-1.578 1.256-2.857 2.805-2.857.128 0 .254.009.378.026l.183.031v-.057z" transform="translate(10.667 14.407)"/>
        <path fill="#00256C" d="M41.6 25.714c-.976-.41-1.995-.615-3.058-.615H6.746V.571h32.272c1.426 0 2.582 1.181 2.582 2.638zm-28.529-1.01V.57" transform="translate(10.667 14.407)"/>
    </g>
</svg>
