<svg xmlns="http://www.w3.org/2000/svg" width="64" height="64" viewBox="0 0 64 64">
    <g fill="none" fill-rule="evenodd" transform="translate(7.137 14.275)">
        <rect width="48" height="4" x=".863" y="32.392" fill="#8BE0F8" rx="1.5"/>
        <path fill="#00256C" fill-rule="nonzero" d="M2.717 14.908c.591-.55 1.192-1.144 4.022-1.313.297-.018.59.017.867.169l5.09 1.965c.994-.557 4.76-2.665 9.196-5.13l-10.487-6.02c-.308-.176-.488-.48-.48-.81.009-.332.202-.624.52-.783l3.534-1.776c.34-.17.878-.238 1.251-.151L32.34 4.83c3.314-1.812 6.05-3.282 7.19-3.831.838-.404 1.856-.607 3.026-.607 2.99 0 4.294.605 4.73 1.497.017.034 1.17 3.76-5.487 7.929L17.94 23.07c-.025.013-.136.036-2.16.976-2.025.94-2.585.719-3.288.719-.702 0-1.902-.848-1.985-.91l-8.12-6.743-.02-.025c-.288-.272-.242-1.63.35-2.179z"/>
    </g>
</svg>
