<svg xmlns="http://www.w3.org/2000/svg" width="64" height="64" viewBox="0 0 64 64">
    <g fill="none" fill-rule="evenodd" transform="translate(2.667 2.667)">
        <circle cx="29.333" cy="29.333" r="27.333" stroke="#767676" stroke-width="4"/>
        <path fill="#767676" d="M29.333 37.333C30.806 37.333 32 38.527 32 40c0 1.473-1.194 2.667-2.667 2.667-1.472 0-2.666-1.194-2.666-2.667 0-1.473 1.194-2.667 2.666-2.667zm0-21.333c1.105 0 2 .895 2 2v14.667c0 1.104-.895 2-2 2-1.104 0-2-.896-2-2V18c0-1.105.896-2 2-2z"/>
    </g>
</svg>
