<svg xmlns="http://www.w3.org/2000/svg" width="134" height="20" viewBox="0 0 134 20">
    <g fill="none" fill-rule="evenodd">
        <path fill="#FFF" d="M-20-36h360v772H-20z"/>
        <g fill="#DF1B2B">
            <path d="M5.306 4c3.388 0 5.215 1.371 5.215 3.41H7.757c-.07-1.016-.807-1.603-2.563-1.603-1.336 0-1.979.587-1.979 1.201 0 .6.488.888 1.954 1.197l2.294.479c1.4.284 3.488.973 3.488 3.019 0 1.983-1.923 3.39-5.41 3.39-3.718 0-5.636-1.76-5.537-3.762H2.77c0 1.443 1.424 1.96 2.882 1.96 1.41 0 2.529-.404 2.529-1.325 0-.728-.917-1.133-1.941-1.345l-2.026-.427C2.297 9.794.446 9.086.446 7.198.446 5.19 2.692 4 5.306 4zm11.14.243v4.093l4.738-4.093h3.583l-5.603 4.748 6.726 5.854h-4.014l-5.43-4.743v4.743h-2.85V4.243h2.85zm12.02.001l3.04 4.193 3.017-4.193h3.191l-4.826 6.537v4.065h-2.863v-4.132l-4.75-6.47h3.191zM78.594 4c3.86 0 6.202 2.373 6.202 5.607 0 3.048-2.306 5.485-6.202 5.485-4.022 0-6.213-2.561-6.213-5.485C72.38 5.702 75.552 4 78.594 4zm36.615.25v1.967h-3.77v8.647h-2.78V6.217h-3.784V4.251h10.334zm-21.337.002c2.211 0 3.702 1.287 3.702 2.915 0 1.197-.585 2.201-2.008 2.673v.018c1.541.377 1.798 1.592 1.873 2.82l.048.734c.026.473.114 1.036.444 1.45h-2.77c-.18-.39-.23-.806-.276-1.212l-.115-.939c-.108-1.08-.381-2.001-2.148-2.001h-2.776v4.152h-2.775V4.252zm-46.038 0c3.234 0 4.377 1.719 4.377 3.401 0 1.656-1.163 3.405-4.377 3.405h-2.908v3.804h-2.775V4.252zm22.293 0v10.61H67.35V4.252h2.777zm33.1 0v10.61h-2.774V4.252h2.774zm15.79 0l2.966 4.187 2.927-4.187h3.096l-4.678 6.531v4.08h-2.78v-4.134l-4.635-6.477h3.103zm-58.247 0c2.211 0 3.698 1.287 3.698 2.915 0 1.197-.58 2.201-2.012 2.673v.018c1.552.377 1.802 1.592 1.88 2.82l.043.734c.035.473.123 1.036.451 1.45h-2.775c-.174-.39-.229-.806-.275-1.212l-.112-.939c-.111-1.08-.385-2.001-2.147-2.001h-2.777v4.152h-2.779V4.252zm17.824 1.707c-2.713 0-3.433 2.042-3.433 3.648 0 2.118 1.272 3.54 3.433 3.54 2.359 0 3.422-1.632 3.422-3.54 0-1.735-.83-3.648-3.422-3.648zm-31.454.107h-2.214v3.178h2.214c1.188 0 2.37-.231 2.37-1.591 0-1.333-1.15-1.587-2.37-1.587zm45.742 0h-3.036v2.98h3.036c1.255 0 1.911-.423 1.911-1.504 0-1.062-.656-1.476-1.911-1.476zm-33.101 0h-3.037v2.98h3.037c1.25 0 1.908-.423 1.908-1.504 0-1.062-.657-1.476-1.908-1.476zm70.289-1.814v.164h-.59v1.34h-.2v-1.34h-.584v-.164h1.374zm.579 0l.533 1.063.535-1.063H132v1.504h-.201V4.473h-.004l-.525 1.063h-.175l-.523-1.039v1.259h-.2V4.252h.277z"/>
        </g>
    </g>
</svg>
