<svg xmlns="http://www.w3.org/2000/svg" width="24" height="24" viewBox="0 0 24 24">
    <g fill="none" fill-rule="evenodd">
        <path d="M0 0H24V24H0z"/>
        <path fill="#0064DE" d="M3 12c0-4.963 4.038-9 9-9s9 4.037 9 9-4.038 9-9 9-9-4.037-9-9z"/>
        <path fill="#FFF" d="M12.17 10.248c.306 0 .565-.109.78-.325.215-.218.322-.481.322-.791 0-.32-.107-.59-.323-.807-.214-.217-.482-.325-.802-.325-.33 0-.6.109-.809.33-.21.218-.314.502-.314.847 0 .31.109.567.325.769.217.2.49.302.822.302zM10 17l4.242-.006v-.397c-.677-.082-1.017-.332-1.017-.751l.017-4.854-3.227.364-.007.497c.687.077 1.03.328 1.03.752v3.31c0 .223-.09.395-.27.515-.182.122-.438.183-.768.183V17z"/>
    </g>
</svg>
