<svg xmlns="http://www.w3.org/2000/svg" width="16" height="16" viewBox="0 0 16 16">
    <g fill="none" fill-rule="evenodd">
        <path fill="#FFF" d="M-20-375h360v640H-20z"/>
        <path fill="#0064DE" fill-rule="nonzero" d="M1.778 0h12.444A.79.79 0 0 1 15 .8v14.4a.79.79 0 0 1-.778.8H1.778A.79.79 0 0 1 1 15.2V.8c0-.442.348-.8.778-.8zM2.5 1.5v13h11v-13h-11zM4.111 4h7.5v2h-7.5V4zm0 4h1.5v1.5h-1.5V8zm0 3h1.5v1.5h-1.5V11zm3-3h1.5v1.5h-1.5V8zm3 0h1.5v1.5h-1.5V8zm-3 3h1.5v1.5h-1.5V11zm3 0h1.5v1.5h-1.5V11z"/>
    </g>
</svg>
