<svg xmlns="http://www.w3.org/2000/svg" xmlns:xlink="http://www.w3.org/1999/xlink" width="32" height="32" viewBox="0 0 32 32">
    <defs>
        <linearGradient id="b" x1="0%" y1="0%" y2="100%">
            <stop offset="0%" stop-color="#00276C"/>
            <stop offset="100%" stop-color="#009ADC"/>
        </linearGradient>
        <rect id="a" width="32" height="32" rx="2"/>
    </defs>
    <g fill="none" fill-rule="evenodd">
        <mask id="c" fill="#fff">
            <use xlink:href="#a"/>
        </mask>
        <use fill="url(#b)" xlink:href="#a"/>
        <g mask="url(#c)">
            <path fill="#ADD1E7" d="M23.214 10.838c-.02.128-.043.26-.069.395-.888 4.56-3.926 6.134-7.807 6.134h-1.976a.96.96 0 0 0-.948.813l-1.012 6.416-.286 1.818a.506.506 0 0 0 .499.585h3.504a.843.843 0 0 0 .833-.711l.034-.178.66-4.187.043-.23a.843.843 0 0 1 .832-.712h.524c3.396 0 6.053-1.379 6.83-5.368.325-1.666.157-3.057-.702-4.036a3.343 3.343 0 0 0-.96-.74"/>
            <path fill="#E6EFF6" d="M22.285 10.467a7.105 7.105 0 0 0-.864-.192 11.046 11.046 0 0 0-1.742-.127h-5.278a.842.842 0 0 0-.832.713l-1.123 7.112-.032.207a.96.96 0 0 1 .948-.813h1.976c3.88 0 6.919-1.576 7.807-6.134.027-.135.049-.267.069-.395a4.794 4.794 0 0 0-.93-.37"/>
            <path fill="#FFF" d="M13.569 10.86a.839.839 0 0 1 .832-.71h5.278c.626 0 1.21.04 1.742.126.36.057.717.142 1.063.254.262.087.506.19.73.308.265-1.685-.002-2.832-.913-3.871-1.004-1.144-2.817-1.634-5.137-1.634H10.43a.962.962 0 0 0-.951.814l-2.805 17.78a.578.578 0 0 0 .57.669h4.158l1.044-6.623 1.123-7.112z"/>
        </g>
    </g>
</svg>
