<svg xmlns="http://www.w3.org/2000/svg" width="208" height="28" viewBox="0 0 208 28">
    <g fill="none" fill-rule="evenodd">
        <path fill="#FFF" d="M-252-174h1440v1606H-252z"/>
        <path fill="#F3F4F8" d="M-252-174h1440v1606H-252z"/>
        <path fill="#FFF" d="M-32-44H968v1416H-32z"/>
        <path fill="#002F87" d="M98.298 14.684s1.35-3.103 1.936-3.992c0 0 1.637 2.204 2.214 4.015 0 0-1.852.295-4.15-.023zm-38.504-2.35v-3.5s.037-2.6 2.147-2.6 1.844 2.527 1.869 2.858c.013.316-.12 3.241-4.016 3.241zm6.59-8.733s-10.267.75-15.798.25c0 0-.659-.175-.835.567 0 0-.362.574.22.96.582.394 2.25 1.357 2.25 4.92v6.877s.331 3.774-2.327 5.2c0 0-.547.177-.255.927 0 0 .037.679.797.57.768-.11 5.065-.43 10.962-.037 0 0 .509.038.652-.285.147-.316.187-.352.187-.352s.505-.501-.254-.997c-.767-.495-2.041-1.252-2.152-4.42-.109-3.177 0-3.25 0-3.25h.474s1.636-.137 2.727 2.29c0 0 2.11 4.985 2.44 5.59.328.609.945 1.884 3.243 1.675 2.289-.213 12.994-.964 24.343.034 0 0 1.241.175 1.714-.998 0 0 1.968-5.162 2.44-5.985 0 0 4.143-.104 6.4-.068 0 0 .838 1.388.838 3.065 0 1.672-1.489 2.067-1.489 2.067s-.622.24-.327.997c0 0 .107.706.835.637.73-.072 7.245-.676 17.072-.072 0 0 .657.245.872-.604 0 0 .403-.672-.289-1 0 0-2.588-.57-2.588-4.595 0-4.021.04-6.872.04-6.872s1.965 2.744 4.295 6.84c2.33 4.094 3.568 5.843 3.568 5.843s1.164 2.206 3.456 1.027c2.292-1.168 4.77-2.526 6.185-3.485 0 0 .548-.254.252-.927l-.212-.43s-.04-.25-.804-.316c0 0-1.709.387-1.743-2-.043-2.388-.149-5.766 0-9.231 0 0 .074-2.134 2.067-2.736 0 0 .726-.07.406-.926l-.22-.434s0-.353-.51-.28c-.511.076-3.348.32-6.367.076 0 0-.655 0-.73.705 0 0-.183.644.33.859.513.209 2.293.85 2.401 3.597.107 2.74.144 6.547.144 6.547s-4.142-5.977-6.802-10.574c0 0-.437-1.246-2.005-1.134-1.566.1-5.315.278-8.04.033 0 0-.768-.109-.881.746 0 0-.213.745.437 1.068 0 0 2.189 1.352 2.189 1.816 0 .462-.04 9.94-.04 9.94s.184 3.886-.873 3.386c0 0-.617.388-2.109-2.281-1.493-2.673-3.42-6.484-6.555-13.893 0 0-.65-2.068-2-2.068 0 0-.803.04-1.637.493-.84.472-3.494 1.929-6.26 2.713 0 0-.723.213-.51.927 0 0-.108.534.69.82.803.284 1.494.6 1.71.995 0 0-.834 2.638-2.364 5.351-1.526 2.698-3.49 7.19-9.135 7.19h-2.218s-.582.07-.582-.714V14.5h1.457s2.364-.493 3.49 2.5c0 0 .22.93 1.02.565 0 0 .909-.1.837-.996-.075-.883-.147-3.315.035-5.454 0 0 .076-.638-.654-.78 0 0-.578-.281-1.019.178-.435.462-1.345 1.567-3.419 1.567h-1.712V6.735s-.035-.355.216-.393c.254-.037 3.424-.782 5.28.678 1.858 1.463 1.965 2.072 2.368 2.6 0 0 .36.892 1.306.283 0 0 .73-.105.367-1.209-.367-1.102-.476-1.499-1.092-4.276 0 0-.107-1.175-1.345-1.066-1.235.108-8.992.999-16.274.428 0 0-.763-.179-.908.602 0 0-.33.536.294 1.037 0 0 2.145.961 2.145 4.664v6.196s.364 4.923-1.419 4.923c0 0-.764.32-2.074-2.21-1.315-2.535-1.387-2.602-1.387-2.602s-1.053-3.312-5.603-3.46c0 0 6.296-1.03 5.715-5.66 0 0-.112-3.524-4.84-3.669h-.509zM152.299 10.918c1.958 2.856 2.211 4.193 2.211 4.193-1.562.25-4.134-.039-4.134-.039.76-2.074 1.923-4.154 1.923-4.154zm16.42 6.009s.148 4.863-1.627 4.524c0 0-.62.408-2.1-2.372-1.494-2.783-3.413-6.746-6.53-14.466 0 0-.655-2.153-1.996-2.153 0 0-.794.045-1.631.522-.836.486-3.48 2.006-6.23 2.82 0 0-.729.222-.514.957 0 0-.104.561.687.86.805.292 1.485.628 1.703 1.034 0 0-.83 2.748-2.353 5.567-1.522 2.815-2.862 6.934-6.452 8.792 0 0-.696.15-.475 1.001.254.962.729.703.729.703 4.165-.447 5.436-.07 6.378 0 .945.071.8-.703.8-.703.255-.486-.071-.78-.071-.78l-.401-.524s-1.563-.402.648-4.962c0 0 4.138-.112 6.388-.082 0 0 .832 1.451.832 3.194 0 1.74-1.486 2.153-1.486 2.153s-.614.26-.327 1.038c0 0 .109.737.836.666.728-.07 12.758-.595 22.552.032 0 0 .686.04.867-.59 0 0 .403-.78-.285-1.226 0 0-1.923-.888-2.069-4.038-.142-3.154-.108-9.13-.108-9.13s-.147-3.336 1.918-4.368c0 0 .544-.263.259-1.004 0 0-.15-.705-.8-.63-.646.075-7.509.444-10.738.037 0 0-.723-.038-.863.593 0 0-.366.596.256 1.078.607.48 2.203 1.593 2.203 5.046v6.411zM190.995 12.617V8.931s.072-2.741 2.084-2.741c2.008 0 2.043 2.318 1.933 3.078-.098.761-.292 3.35-4.017 3.35zm6.291-9.361s-8.047.977-15.508.224c0 0-.949-.262-1.063.753 0 0-.066.673.335.94.402.257 2.043 1.276 2.154 4.813.109 3.532.183 2.52.109 7.336 0 0 .294 4.623-2.263 5.75 0 0-.663.157-.298 1.13 0 0 .221.754.846.495 0 0 5.994-.414 11.187.03 0 0 .585.23.765-.562 0 0 .48-.529-.255-1.093-.733-.562-2.043-1.542-2.195-3.91-.143-2.37-.105-4.249-.105-4.249h.507s1.724-.228 2.891 2.557a289.22 289.22 0 0 1 1.973 4.81s.769 2.222 2.01 2.938c0 0 .514.492 2.414.268 0 0 3.114-.198 6.181-1.66 0 0 .695-.152.48-.977 0 0 .147-.638-.734-.83-.879-.185-1.537-1.053-2.154-2.332a660.847 660.847 0 0 0-1.576-3.157s-1.283-3.273-5.45-3.31c0 0 5.74-1.01 5.74-5.452 0-4.447-5.12-4.512-5.12-4.512h-.87z"/>
        <path fill="#FEFEFE" d="M47.973 14.404c0 6.592-5.304 11.936-11.846 11.936s-11.845-5.344-11.845-11.936c0-6.598 5.303-11.944 11.845-11.944 6.542 0 11.846 5.346 11.846 11.944"/>
        <path fill="#E1251B" d="M41.285 7.162c3.569 1.105 6.165 4.455 6.165 8.414 0 .581-.053 1.148-.16 1.693l-.012.074a10.086 10.086 0 0 1-1.788 4.207l-.017.014a11.829 11.829 0 0 0 2.5-7.283c0-6.53-5.251-11.821-11.732-11.821-2.95 0-5.65 1.096-7.712 2.917l-.028.02a8.213 8.213 0 0 0-2.64 6.05c0 .99.17 1.939.495 2.823l.02.038a5.163 5.163 0 0 0 4.71 3.051c2.853 0 5.171-2.331 5.171-5.206l-.013-2.246c0-1.03.568-1.921 1.413-2.383l.01-.01a4.53 4.53 0 0 1 2.21-.57 4.6 4.6 0 0 1 1.401.218h.007"/>
        <path fill="#002F87" d="M27.68 22.057a12.413 12.413 0 0 0 9.414 4.283c3.092 0 5.92-1.114 8.084-2.956l.026-.023c1.702-1.52 2.77-3.709 2.77-6.139a8.233 8.233 0 0 0-.517-2.863l-.023-.041c-.85-1.829-2.74-3.101-4.93-3.101-2.999 0-5.425 2.371-5.425 5.29l.013 2.268c0 1.055-.593 1.96-1.476 2.428l-.014.01c-.69.373-1.478.58-2.317.58a4.853 4.853 0 0 1-1.463-.224h-.005c-3.744-1.121-6.462-4.52-6.462-8.54 0-.581.053-1.151.17-1.706l.01-.083a10.067 10.067 0 0 1 1.877-4.268l.016-.015a11.733 11.733 0 0 0-2.62 7.402c0 1.92.461 3.74 1.291 5.35l-.104.078s-.477.358-1.443-.728c-.962-1.084-6.634-7.77-6.634-7.77s3.6-3.757 7.12-5.274c0 0 .92-.287.7-1.09l-.144-.461s-.04-.506-.857-.396c-.816.105-4.667.396-8.52.029 0 0-.596 0-.815.48 0 0-.37.608 0 .97.368.36 1.707 1.267 1.707 2.492 0 0 .289.903-1.745 2.348-2.038 1.451-3.302 2.385-4.156 2.818l.042-3.396s-.113-2.852 2.004-4.194c0 0 .524-.211.333-.69l-.15-.348s-.111-.585-.737-.51c0 0-3.672.397-10.98.07 0 0-.472-.04-.666.327l-.143.288s-.263.652.143.944c.417.284 2.116 1.261 2.195 4.26 0 0 .18 5.67-.08 7.882-.259 2.196-.446 3.46-2.258 5.015 0 0-.48.36-.263.904l.263.464s.184.369.809.294c.633-.068 5.194-.5 10.98-.068 0 0 .4.143.588-.255l.261-.504s.295-.511-.26-.904c-.557-.403-2.039-1.556-2.081-3.793-.029-2.243-.029-3.654-.029-3.654s1.002.397 6.333 8.095c0 0 1.89 3.323 5.893 1.26 0 0 2.93-1.553 4.15-2.562l.125-.073"/>
    </g>
</svg>
