<svg xmlns="http://www.w3.org/2000/svg" width="118" height="24" viewBox="0 0 118 24">
    <g fill="none" fill-rule="evenodd">
        <path fill="#FFF" d="M-272-234h1440v1860H-272z"/>
        <path fill="#F3F4F8" d="M-272-234h1440v1860H-272z"/>
        <path fill="#FFF" d="M-52-104H948v1650H-52z"/>
        <g transform="translate(-20 -8)">
            <rect width="935" height="364" x=".5" y=".5" fill="#FFF" stroke="#D9DBE1" rx="10"/>
            <path fill="#C7F3FF" d="M10 0h916c5.523 0 10 4.477 10 10v30H0V10C0 4.477 4.477 0 10 0z"/>
            <g fill="#DF1B2B">
                <path d="M24.717 16c3.01 0 4.635 1.219 4.635 3.031h-2.457c-.062-.903-.718-1.425-2.278-1.425-1.187 0-1.759.522-1.759 1.068 0 .534.434.79 1.737 1.064l2.04.425c1.242.253 3.099.866 3.099 2.684 0 1.763-1.71 3.013-4.808 3.013-3.306 0-5.01-1.565-4.923-3.344h2.46c0 1.283 1.266 1.743 2.562 1.743 1.254 0 2.247-.36 2.247-1.178 0-.648-.814-1.007-1.725-1.195l-1.8-.38c-1.706-.356-3.35-.985-3.35-2.664 0-1.784 1.996-2.842 4.32-2.842zm9.902.216v3.638l4.211-3.638h3.185l-4.98 4.22 5.979 5.204h-3.568l-4.827-4.216v4.216h-2.533v-9.424h2.533zm10.684 0l2.702 3.728 2.682-3.727h2.837l-4.29 5.81v3.614h-2.545v-3.673l-4.222-5.751h2.836zM89.861 16c3.432 0 5.514 2.11 5.514 4.984 0 2.71-2.05 4.876-5.514 4.876-3.575 0-5.522-2.277-5.522-4.876 0-3.471 2.818-4.984 5.522-4.984zm32.547.223v1.748h-3.351v7.686h-2.47V17.97h-3.365v-1.748h9.186zm-18.966 0c1.965 0 3.29 1.145 3.29 2.593 0 1.063-.52 1.956-1.784 2.375v.016c1.37.335 1.598 1.416 1.665 2.507l.042.652c.024.42.102.921.395 1.29h-2.463c-.16-.347-.203-.718-.245-1.078l-.102-.835c-.096-.96-.339-1.779-1.91-1.779h-2.467v3.691h-2.466v-9.431zm-40.923 0c2.875 0 3.891 1.529 3.891 3.024 0 1.472-1.034 3.027-3.891 3.027h-2.584v3.381h-2.467v-9.431zm19.816.001v9.432h-2.468v-9.432h2.468zm29.423 0v9.432h-2.466v-9.432h2.466zm14.034 0l2.637 3.721 2.602-3.72h2.752l-4.159 5.804v3.627h-2.47v-3.675l-4.12-5.757h2.758zm-51.774 0c1.965 0 3.287 1.144 3.287 2.592 0 1.063-.515 1.956-1.789 2.375v.016c1.38.335 1.602 1.416 1.672 2.507l.038.652c.03.42.11.921.4 1.29H75.16c-.154-.347-.204-.718-.245-1.078l-.1-.835c-.098-.96-.341-1.779-1.908-1.779H70.44v3.691h-2.47v-9.431zm15.843 1.517c-2.411 0-3.051 1.816-3.051 3.243 0 1.883 1.13 3.147 3.051 3.147 2.097 0 3.042-1.451 3.042-3.147 0-1.542-.737-3.243-3.042-3.243zm-27.959.095h-1.967v2.825h1.967c1.056 0 2.106-.205 2.106-1.414 0-1.185-1.022-1.41-2.106-1.41zm40.66 0h-2.699v2.65h2.699c1.116 0 1.699-.377 1.699-1.338 0-.943-.583-1.312-1.7-1.312zm-29.423 0h-2.7v2.65h2.7c1.111 0 1.696-.377 1.696-1.338 0-.943-.585-1.312-1.696-1.312zm62.478-1.612v.146h-.524v1.192h-.177V16.37h-.52v-.146h1.221zm.515 0l.474.945.476-.945h.251v1.336h-.178v-1.14h-.004l-.467.945h-.155l-.465-.923v1.118h-.179v-1.336h.247z"/>
            </g>
        </g>
    </g>
</svg>
