<svg xmlns="http://www.w3.org/2000/svg" width="24" height="24" viewBox="0 0 24 24">
    <g fill="none" fill-rule="evenodd">
        <path d="M0 0H24V24H0z"/>
        <g fill="#767676" fill-rule="nonzero">
            <path d="M.167 17.778c0 1.227.995 2.222 2.222 2.222H12.61c1.227 0 2.222-.995 2.222-2.222V6.167c-.002-.147-.062-.287-.166-.39L8.694.14c-.098-.09-.227-.14-.36-.139H2.388C1.162 0 .167.995.167 2.222v15.556zM8.889 1.833l4 3.778H9.444c-.15.008-.295-.048-.401-.154-.106-.106-.162-.252-.154-.401V1.833zm-7.611.39c0-.614.497-1.112 1.11-1.112h5.39v3.945c-.008.444.165.872.48 1.186.314.315.742.488 1.186.48h4.278v11.056c0 .613-.497 1.11-1.11 1.11H2.388c-.614 0-1.111-.497-1.111-1.11V2.222z" transform="translate(5 2)"/>
            <path d="M3.056 13.139h8.86c.307 0 .556-.249.556-.556 0-.306-.249-.555-.555-.555H3.056c-.307 0-.556.249-.556.555 0 .307.249.556.556.556zM3.056 9.806H7.75c.307 0 .556-.25.556-.556 0-.307-.25-.556-.556-.556H3.056c-.307 0-.556.25-.556.556 0 .307.249.556.556.556zM3.056 16.472h8.86c.307 0 .556-.249.556-.555 0-.307-.249-.556-.555-.556H3.056c-.307 0-.556.249-.556.556 0 .306.249.555.556.555z" transform="translate(5 2)"/>
        </g>
    </g>
</svg>
