<svg xmlns="http://www.w3.org/2000/svg" width="48" height="48" viewBox="0 0 48 48">
    <path fill="#FFF" fill-rule="nonzero" d="M9.358 25.33c.405-.315.817-.656 2.759-.753.204-.01.405.01.595.097l3.494 1.127c.681-.319 3.265-1.529 6.31-2.944l-7.197-3.454c-.211-.101-.334-.275-.329-.466.006-.19.139-.357.356-.449l2.426-1.019c.232-.098.602-.136.858-.086l11.054 2.164c2.275-1.04 4.152-1.884 4.935-2.199.574-.231 1.273-.348 2.076-.348 2.051 0 2.946.347 3.246.86.011.019.802 2.157-3.766 4.55l-16.37 7.605c-.018.007-.094.02-1.483.56-1.39.539-1.774.412-2.256.412-.482 0-1.306-.486-1.362-.522l-5.572-3.87-.013-.014c-.199-.156-.167-.935.239-1.25z"/>
</svg>
