<svg xmlns="http://www.w3.org/2000/svg" width="44" height="44" viewBox="0 0 44 44">
    <path fill="#FFF" fill-rule="nonzero" d="M8.985 23.627c.36-.28.726-.584 2.452-.67.182-.009.36.01.53.086l3.105 1.003c.605-.284 2.902-1.36 5.608-2.617l-6.396-3.07c-.188-.09-.298-.246-.293-.415.005-.168.123-.318.317-.399l2.156-.906c.206-.087.535-.121.763-.077l9.826 1.924c2.022-.924 3.69-1.674 4.386-1.954.51-.206 1.132-.31 1.845-.31 1.824 0 2.62.309 2.886.764.01.017.713 1.918-3.347 4.044L18.27 27.79c-.016.007-.083.019-1.318.498-1.235.48-1.577.367-2.005.367-.429 0-1.161-.432-1.212-.464l-4.952-3.44-.012-.012c-.176-.14-.148-.832.213-1.112z"/>
</svg>
