<svg xmlns="http://www.w3.org/2000/svg" width="70" height="70" viewBox="0 0 70 70">
    <g fill="none" fill-rule="evenodd">
        <path stroke="#000" stroke-linecap="round" stroke-linejoin="round" stroke-width="2" d="M53.048 31.055v-5.166"/>
        <path stroke="#000" stroke-linecap="round" stroke-width="2" d="M33.95 28.993v14.948c0 .82.691 1.483 1.543 1.483h19.881c.853 0 1.545-.663 1.545-1.483v-1.729"/>
        <path stroke="#000" stroke-linecap="round" stroke-width="2" d="M52.14 31.055h3.234c.853 0 1.544.663 1.544 1.483v9.79"/>
        <path stroke="#000" stroke-linecap="round" stroke-linejoin="round" stroke-width="2" d="M53.048 31.055H36.531a2.582 2.582 0 0 1 0-5.166h16.517"/>
        <path stroke="#000" stroke-linecap="round" stroke-width="2" d="M44.845 50.787v3.523c0 2.746-2.137 4.973-4.773 4.973H21.18c-2.636 0-4.774-2.227-4.774-4.973V17.005c0-2.746 2.138-4.974 4.774-4.974h18.892c2.636 0 4.773 2.228 4.773 4.974v3.819"/>
        <path stroke="#000" stroke-linecap="round" stroke-linejoin="round" stroke-width="2" d="M51.406 38.281h4.583"/>
        <path fill="#000" d="M32.813 53.047a1.641 1.641 0 1 1-3.283-.001 1.641 1.641 0 0 1 3.282 0"/>
    </g>
</svg>
