<svg xmlns="http://www.w3.org/2000/svg" width="48" height="48" viewBox="0 0 48 48">
    <g fill="none" fill-rule="evenodd">
        <path d="M0 0H48V48H0z"/>
        <path stroke="#DE001B" stroke-width="3" d="M21.975 6.197L3.31 39.446C2.42 41.03 3.546 43 5.336 43h37.328c1.792 0 2.914-1.97 2.025-3.554L26.025 6.197c-.894-1.596-3.154-1.596-4.05 0"/>
        <path fill="#DE001B" stroke="#DE001B" stroke-width=".5" d="M24 32.5c.966 0 1.75.784 1.75 1.75S24.966 36 24 36s-1.75-.784-1.75-1.75.784-1.75 1.75-1.75zm0-14c.725 0 1.313.588 1.313 1.313v9.625c0 .724-.588 1.312-1.313 1.312s-1.313-.588-1.313-1.313v-9.625c0-.724.588-1.312 1.313-1.312z"/>
    </g>
</svg>
