<svg xmlns="http://www.w3.org/2000/svg" width="32" height="32" viewBox="0 0 32 32">
    <g fill="none" fill-rule="evenodd">
        <circle cx="16" cy="16" r="16" fill="#3F73D7"/>
        <path d="M5 5H27V27H5z"/>
        <path stroke="#FFF" stroke-width="1.5" d="M21.3 21.3c-1.357 1.359-3.232 2.2-5.3 2.2-2.068 0-3.943-.841-5.3-2.2-1.359-1.357-2.2-3.232-2.2-5.3 0-2.068.841-3.943 2.2-5.3 1.357-1.359 3.232-2.2 5.3-2.2 2.068 0 3.943.841 5.3 2.2 1.359 1.357 2.2 3.232 2.2 5.3 0 2.068-.841 3.943-2.2 5.3z"/>
        <text fill="#FFF" font-family="OriyaSangamMN-Bold, Oriya Sangam MN" font-size="12.4" font-weight="bold">
            <tspan x="15.083" y="20.958">!</tspan>
        </text>
    </g>
</svg>
