<svg xmlns="http://www.w3.org/2000/svg" width="16" height="16" viewBox="0 0 16 16">
    <g fill="none" fill-rule="evenodd">
        <path d="M0 0H16V16H0z"/>
        <g fill="#FFF">
            <path d="M9.475 2c.483 0 .875.392.875.875V7H8.6V2.875c0-.483.392-.875.875-.875zM9.7 8.1c-.552 0-1 .449-1 1 0 .551.448 1 1 1s1-.449 1-1c0-.551-.448-1-1-1M0 5.598s0-5 5.25-5v5H0z" transform="translate(1 2)"/>
            <path d="M7.82 9.067c0-.997.829-1.808 1.846-1.808 1.018 0 1.845.811 1.845 1.808s-.827 1.808-1.845 1.808-1.845-.811-1.845-1.808zM0 6.535v3.429c0 1.42 1.175 2.571 2.625 2.571h8.75c1.45 0 2.625-1.152 2.625-2.571V6.535H0z" transform="translate(1 2)"/>
        </g>
    </g>
</svg>
