<svg xmlns="http://www.w3.org/2000/svg" width="34" height="54" viewBox="0 0 34 54">
    <g fill="none" fill-rule="evenodd" transform="matrix(-1 0 0 1 34 0)">
        <path d="M0 0H34V54H0z"/>
        <rect width="24" height="8" x="5" fill="#8E8E8E" rx="4"/>
        <rect width="30" height="28" x="2" y="19" fill="#8E8E8E" rx="8"/>
        <rect width="9" height="22" y="28" fill="#8E8E8E" rx="4"/>
        <rect width="9" height="22" x="25" y="28" fill="#8E8E8E" rx="4"/>
        <rect width="24" height="10" x="5" y="44" fill="#8E8E8E" rx="4"/>
        <path fill="#FFF" stroke="#FFF" stroke-width=".5" d="M26.574 27l.426.426L17.425 37 27 46.574l-.426.426L17 37.425 7.426 47 7 46.574 16.574 37 7 27.426 7.426 27 17 36.575 26.574 27z"/>
    </g>
</svg>
