<svg xmlns="http://www.w3.org/2000/svg" width="24" height="24" viewBox="0 0 24 24">
    <g fill="none" fill-rule="evenodd">
        <path d="M0 0H24V24H0z"/>
        <path fill="#57585A" d="M15.634 7.928c-.04-.004-.072-.022-.113-.022H8.479c-.042 0-.074.018-.116.022L6.895 5.556h10.209l-1.47 2.372zM12 4H6.475c-1.095 0-1.808.93-1.317 1.722l3.205 4.667 2.362 3.033c.127.205.299.356.49.47v4.552H9.186c-.433 0-.785.349-.785.778 0 .43.352.778.785.778H14.813c.434 0 .785-.347.785-.778 0-.429-.35-.778-.785-.778h-2.028v-4.552c.19-.114.363-.265.49-.47.484-.548 1.27-1.559 2.36-3.033 1.089-1.475 2.158-3.03 3.208-4.667C19.333 4.93 18.62 4 17.525 4H12z"/>
    </g>
</svg>
