<svg xmlns="http://www.w3.org/2000/svg" width="44" height="74" viewBox="0 0 44 74">
    <g fill="none" fill-rule="evenodd">
        <g transform="matrix(-1 0 0 1 44 0)">
            <path d="M0 0H44V74H0z"/>
            <rect width="24" height="8" x="9" y="9" fill="#8E8E8E" rx="4"/>
            <rect width="30" height="44" x="6" y="23" fill="#8E8E8E" rx="8"/>
            <rect width="9" height="22" x="4" y="48" fill="#8E8E8E" rx="4"/>
            <rect width="9" height="22" x="29" y="48" fill="#8E8E8E" rx="4"/>
            <rect width="24" height="10" x="9" y="64" fill="#8E8E8E" rx="4"/>
            <path stroke="#8E8E8E" stroke-linecap="round" stroke-width="2" d="M43 73V8.101C43 4.18 39.506 1 35.195 1H3"/>
        </g>
        <path fill="#FFF" stroke="#FFF" stroke-width=".5" d="M32.574 38l.426.426L23.425 48 33 57.574l-.426.426L23 48.425 13.426 58 13 57.574 22.574 48 13 38.426l.426-.426L23 47.575 32.574 38z"/>
    </g>
</svg>
