<svg xmlns="http://www.w3.org/2000/svg" width="64" height="64" viewBox="0 0 64 64">
    <g fill="none" fill-rule="evenodd">
        <path fill="#8BE0F8" d="M20.47 10.353h28.706c1.43 0 2.589 1.159 2.589 2.588v40c0 1.43-1.16 2.588-2.589 2.588H20.471c-1.43 0-2.589-1.158-2.589-2.588v-40c0-1.43 1.16-2.588 2.589-2.588z"/>
        <path fill="#FFF" d="M24.235 14.118h21.177c1.43 0 2.588 1.158 2.588 2.588v40.706H21.647V16.706c0-1.43 1.159-2.588 2.588-2.588z"/>
        <path fill="#00256C" d="M12.588 32H46.51v23.53H12.588c-.714 0-1.294-.58-1.294-1.295v-20.94c0-.716.58-1.295 1.294-1.295z"/>
        <path stroke="#00256C" stroke-width="1.294" d="M25.412 32.6v-3.497c0-1 .562-1.809 1.255-1.809h8.784c.693 0 1.255.81 1.255 1.809v3.838"/>
    </g>
</svg>
