<svg xmlns="http://www.w3.org/2000/svg" width="20" height="20" viewBox="0 0 20 20">
    <g fill="none" fill-rule="evenodd">
        <path d="M0 0h20v20H0z"/>
        <path fill="#0064DE" fill-rule="nonzero" d="M.189 8.787c.249-.246.5-.51 1.776-.695a.785.785 0 0 1 .399.032l2.372.582c.43-.265 2.065-1.27 3.99-2.448L3.774 4.263c-.146-.059-.238-.174-.245-.308-.008-.134.07-.26.208-.337l1.54-.862a1.06 1.06 0 0 1 .562-.112l7.423.856c1.44-.868 2.63-1.574 3.127-1.843.366-.197.82-.32 1.35-.37 1.353-.123 1.964.067 2.192.41.01.012.657 1.467-2.216 3.424L7.36 11.45c-.011.006-.06.02-.946.482-.885.463-1.146.397-1.464.426-.318.03-.89-.263-.93-.285L.114 9.69l-.01-.01c-.14-.097-.164-.647.085-.893z"/>
        <rect width="20" height="2.5" y="16.25" fill="#0064DE" rx="1"/>
    </g>
</svg>
