<svg xmlns="http://www.w3.org/2000/svg" xmlns:xlink="http://www.w3.org/1999/xlink" width="64" height="64" viewBox="0 0 64 64">
    <defs>
        <path id="prefix__a" d="M0.686 0L14.552 0 14.552 21.333 0.686 21.333z"/>
    </defs>
    <g fill="none" fill-rule="evenodd">
        <path fill="#8BE0F8" d="M0 8.029L28.8 0 28.8 37.333 0 37.333z" transform="translate(16 10.267)"/>
        <path fill="#00256C" d="M0 8.533h27.733c1.768 0 3.2 1.433 3.2 3.2v34.134H3.2c-1.767 0-3.2-1.433-3.2-3.2V8.533z" transform="translate(16 10.267)"/>
        <g transform="translate(16 10.267) translate(7.848 17.067)">
            <mask id="prefix__b" fill="#fff">
                <use xlink:href="#prefix__a"/>
            </mask>
            <path fill="#FFF" stroke="#FFF" stroke-linejoin="round" stroke-width=".5" d="M8.788 12.145l4.698 2.323v-1.3L8.898 9.073l-.357-4.79c0-.598-.453-1.083-1.012-1.083-.559 0-1.011.485-1.011 1.083l-.37 4.963-4.396 3.922v1.3l4.524-2.236.242 3.753c0 .05.007.099.013.148l-1.367 1.709c-.112.14.026.346.186.278l2.118-.905c.039-.016.083-.016.122 0l2.118.905c.16.068.298-.138.186-.278l-1.368-1.71c.007-.048.015-.096.015-.147l.247-3.84z" mask="url(#prefix__b)"/>
        </g>
    </g>
</svg>
