<svg xmlns="http://www.w3.org/2000/svg" width="20" height="20" viewBox="0 0 20 20">
    <g fill="none" fill-rule="evenodd" transform="translate(-1)">
        <path d="M1 0h20v20H1z"/>
        <path fill="#0064DE" fill-rule="nonzero" d="M1.895 6.132c.313-.075.637-.163 1.719.3a.71.71 0 0 1 .294.216l1.566 1.59c.464-.004 2.22-.015 4.287-.023L6.867 4.283c-.085-.116-.1-.25-.042-.36.059-.108.18-.17.325-.165l1.615.057a.96.96 0 0 1 .491.179l5.366 4.214c1.54.004 2.805.016 3.322.043.38.019.793.138 1.23.353 1.112.548 1.496.99 1.509 1.367 0 .015-.196 1.469-3.376 1.637l-11.114.04c-.011 0-.056-.013-.968-.07-.912-.059-1.084-.236-1.345-.364-.262-.13-.567-.632-.587-.668l-1.89-3.74-.004-.011c-.061-.144.184-.588.496-.663z"/>
        <rect width="20" height="2" x="1" y="17" fill="#0064DE" rx="1"/>
    </g>
</svg>
