<svg xmlns="http://www.w3.org/2000/svg" width="64" height="64" viewBox="0 0 64 64">
    <g fill="none" fill-rule="evenodd" transform="translate(5.647 5.647)">
        <path fill="#8BE0F8" d="M33.424.915l18.367 18.366c.505.506.505 1.325 0 1.83l-23.15 23.15c-.505.506-1.325.506-1.83 0L8.444 25.895c-.505-.505-.505-1.325 0-1.83L31.594.915c.506-.505 1.325-.505 1.83 0z"/>
        <path fill="#00256C" d="M24.98 7.53l20.196 20.196-24.064 24.065c-.506.505-1.325.505-1.83 0L.914 33.424c-.505-.505-.505-1.324 0-1.83L24.98 7.53z"/>
        <circle cx="42.353" cy="10.353" r="2.824" fill="#FFF"/>
        <circle cx="10.353" cy="42.353" r="2.824" fill="#FFF"/>
        <path fill="#FFF" stroke="#FFF" stroke-linejoin="round" stroke-width=".5" d="M22.397 31.96l2.297 6.23 1.1-1.101-.695-7.631 3.73-4.38c.507-.506.507-1.328 0-1.835-.507-.507-1.329-.507-1.835 0l-4.538 3.865-7.31-.667-1.1 1.1 5.998 2.212-2.958 3.398c-.044.043-.078.09-.113.138l-2.688.205c-.22.018-.27.317-.067.405l2.688 1.156c.05.021.09.06.11.11l1.157 2.689c.087.202.387.153.404-.067l.206-2.688c.047-.036.095-.07.139-.113l3.475-3.026z"/>
    </g>
</svg>
