<svg xmlns="http://www.w3.org/2000/svg" width="64" height="64" viewBox="0 0 64 64">
    <g fill="none" fill-rule="evenodd" transform="translate(7.137 11.294)">
        <rect width="34.667" height="24" x=".863" y="4.706" fill="#8BE0F8" rx="1.294"/>
        <path stroke="#8BE0F8" stroke-width="1.294" d="M12.863 5.717V2.414c0-.943.53-1.708 1.185-1.708h8.296c.655 0 1.185.765 1.185 1.708V6.04"/>
        <g fill="#FFF" transform="translate(10.745 9.412)">
            <rect width="16" height="10.353" x="12.118" y="1.294" rx="2.588"/>
            <rect width="37.333" height="26.667" x=".784" y="5.961" rx="2.588"/>
        </g>
        <g transform="translate(12.627 12.235)">
            <rect width="34.667" height="24" x=".235" y="4.471" fill="#00256C" rx="1.294"/>
            <path fill="#FFF" d="M6.902 4.471H8.235V28.471H6.902zM26.902 4.471H28.235V28.471H26.902z"/>
            <path stroke="#00256C" stroke-width="1.294" d="M12.235 5.482V2.179c0-.944.53-1.708 1.185-1.708h8.297c.654 0 1.185.764 1.185 1.708v3.625"/>
        </g>
    </g>
</svg>
