<svg xmlns="http://www.w3.org/2000/svg" width="44" height="44" viewBox="0 0 44 44">
    <g fill="none" fill-rule="evenodd" transform="translate(6 6)">
        <circle cx="16" cy="16" r="16" fill="#767676"/>
        <g fill="#FFF">
            <path d="M8.588 16.808c-.563 0-1.02-.48-1.02-1.071 0-.592.457-1.072 1.02-1.072s1.02.48 1.02 1.072c0 .591-.457 1.071-1.02 1.071m.35-3.665s-.708 0-1.35.656v-2.644H6v6.946h1.604v-.544s.379.717 1.333.717c0 0 2.238-.086 2.238-2.592 0 0-.082-2.54-2.238-2.54M11.685 11v1.607s.724-.035.724 1.382v4.112h1.53v-4.492S14.006 11 11.686 11M17.682 16.808c-.563 0-1.02-.48-1.02-1.071 0-.592.457-1.072 1.02-1.072s1.02.48 1.02 1.072c0 .591-.457 1.071-1.02 1.071m0-3.644s-2.624 0-2.624 2.573c0 0-.085 2.537 2.623 2.537 0 0 2.684-.004 2.684-2.537 0 0 .087-2.573-2.684-2.573M23.797 16.808c-.564 0-1.02-.48-1.02-1.071 0-.592.456-1.072 1.02-1.072.563 0 1.02.48 1.02 1.072 0 .591-.457 1.071-1.02 1.071zm.948-3.475v.466s-.456-.635-1.332-.635c0 0-2.246-.1-2.246 2.555 0 0-.025 2.473 2.184 2.473 0 0 .901.038 1.394-.635v.389s.112 1.218-1.011 1.218h-.383v1.477h.617s2.32.026 2.32-2.605v-4.703h-1.543z"/>
        </g>
    </g>
</svg>
