<svg xmlns="http://www.w3.org/2000/svg" width="44" height="44" viewBox="0 0 44 44">
    <g fill="none" fill-rule="evenodd" transform="translate(6 6)">
        <circle cx="16" cy="16" r="16" fill="#767676"/>
        <path fill="#FFF" d="M23.667 12.718a1.99 1.99 0 0 0-1.416-1.39C21.004 11 16 11 16 11s-5.002 0-6.251.328a1.99 1.99 0 0 0-1.415 1.39C8 13.943 8 16.5 8 16.5s0 2.557.334 3.783a1.99 1.99 0 0 0 1.415 1.39C10.999 22 16 22 16 22s5.004 0 6.251-.327a1.99 1.99 0 0 0 1.416-1.39C24 19.057 24 16.5 24 16.5s0-2.557-.333-3.782"/>
        <path fill="#A9AAAB" d="M14.4 18.7l4.267-2.2-4.267-2.2z"/>
    </g>
</svg>
