<svg xmlns="http://www.w3.org/2000/svg" width="44" height="44" viewBox="0 0 44 44">
    <g fill="none" fill-rule="evenodd" transform="translate(6 6)">
        <circle cx="16" cy="16" r="16" fill="#767676"/>
        <g fill="#FFF">
            <path d="M18.685 22.544l.001-.015 1.002-.08a3.306 3.306 0 0 0 1.376-.407 2.58 2.58 0 0 0 1.06-1.118c.214-.425.308-.889.349-1.359.04-.464.065-.931.064-1.397-.001-1.566-.019-3.132-.027-4.698-.003-.528-.022-1.054-.125-1.574-.115-.574-.35-1.083-.763-1.5-.364-.367-.812-.585-1.308-.72-.607-.163-1.232-.175-1.85-.18-1.738-.013-3.476.016-5.215.022-.483.001-.962.026-1.434.13-.71.155-1.307.49-1.733 1.099-.353.504-.506 1.077-.553 1.675-.048.617-.056 1.237-.068 1.856a53.13 53.13 0 0 0 0 1.726c.016 1.137.038 2.273.063 3.41.011.49.113.962.312 1.416.253.58.675 1 1.224 1.287.43.226.909.322 1.39.359.508.04 1.019.062 1.528.065 1.569.008 3.138.003 4.707.003M8 18.93v-5.862c.01-.042.029-.084.032-.127.013-.193.024-.386.032-.58a5.145 5.145 0 0 1 .331-1.572 4.002 4.002 0 0 1 1.332-1.794c.706-.55 1.536-.806 2.414-.893.553-.055 1.112-.051 1.669-.07.195-.006.391.002.587-.002.048 0 .095-.02.143-.031h2.92c.032.01.064.03.096.031.531.013 1.063.014 1.595.037.359.015.717.052 1.075.093.503.058.98.22 1.427.448.48.246.897.579 1.248.997.314.376.549.79.719 1.244.26.696.343 1.42.349 2.156 0 .063.02.127.031.19v5.64c-.01.02-.03.041-.031.063-.013.235-.015.472-.035.706-.025.284-.038.574-.101.85-.207.906-.593 1.714-1.308 2.346a4.24 4.24 0 0 1-1.437.849c-.701.242-1.429.319-2.167.319-.064 0-.127.02-.19.031H13.27c-.032-.01-.063-.03-.096-.032-.448-.033-.898-.052-1.344-.099a4.231 4.231 0 0 1-1.35-.392 4.094 4.094 0 0 1-2.029-2.107c-.305-.733-.423-1.505-.42-2.297 0-.047-.02-.095-.031-.142"/>
            <path d="M18.56 16.001a2.55 2.55 0 0 0-2.563-2.574c-1.46.013-2.566 1.135-2.57 2.576-.004 1.39 1.078 2.481 2.426 2.56 1.546.09 2.753-1.21 2.706-2.562M12 16.007a3.986 3.986 0 0 1 4.181-4.004A3.974 3.974 0 0 1 20 16.105 3.963 3.963 0 0 1 15.936 20c-2.158-.024-3.924-1.747-3.936-3.993M20.003 11.334c-.042-.336.312-.686.69-.667.318.016.65.302.64.687a.683.683 0 0 1-.684.646c-.325-.008-.677-.296-.646-.666"/>
        </g>
    </g>
</svg>
