<svg xmlns="http://www.w3.org/2000/svg" width="44" height="44" viewBox="0 0 44 44">
    <g fill="none" fill-rule="evenodd" transform="translate(6 6)">
        <circle cx="16" cy="16" r="16" fill="#767676"/>
        <path fill="#FFF" d="M13.403 22c5.283 0 8.172-4.617 8.172-8.621 0-.131 0-.262-.008-.392A6.033 6.033 0 0 0 23 11.42a5.503 5.503 0 0 1-1.65.477 3.017 3.017 0 0 0 1.263-1.676 5.579 5.579 0 0 1-1.824.735c-1.088-1.22-2.907-1.279-4.064-.132-.746.74-1.062 1.843-.83 2.896-2.31-.123-4.462-1.273-5.92-3.166-.763 1.384-.374 3.155.889 4.045a2.739 2.739 0 0 1-1.304-.38v.039c0 1.442.964 2.684 2.304 2.97-.422.122-.866.14-1.297.052.377 1.234 1.455 2.08 2.684 2.104a5.576 5.576 0 0 1-3.567 1.3c-.229 0-.457-.015-.684-.044a7.826 7.826 0 0 0 4.403 1.359"/>
    </g>
</svg>
