<svg xmlns="http://www.w3.org/2000/svg" xmlns:xlink="http://www.w3.org/1999/xlink" width="54" height="54" viewBox="0 0 54 54">
    <defs>
        <circle id="a" cx="26.182" cy="26.182" r="26.182"/>
    </defs>
    <g fill="none" fill-rule="evenodd">
        <g transform="translate(.818 .818)">
            <use fill="#767676" xlink:href="#a"/>
            <use fill="#47B749" xlink:href="#a"/>
        </g>
        <g fill="#FFF">
            <path d="M14.871 28.322c-.922 0-1.67-.785-1.67-1.753 0-.968.748-1.753 1.67-1.753.922 0 1.67.785 1.67 1.753 0 .968-.748 1.753-1.67 1.753m.572-5.998s-1.158 0-2.208 1.074v-4.326h-2.599v11.365h2.625v-.89s.62 1.174 2.182 1.174c0 0 3.661-.141 3.661-4.24 0 0-.134-4.157-3.66-4.157M19.939 18.818v2.63s1.186-.057 1.186 2.262v6.728h2.503v-7.35s.108-4.27-3.689-4.27M29.752 28.322c-.922 0-1.67-.785-1.67-1.753 0-.968.748-1.753 1.67-1.753.922 0 1.67.785 1.67 1.753 0 .968-.748 1.753-1.67 1.753m0-5.962s-4.293 0-4.293 4.209c0 0-.139 4.152 4.292 4.152 0 0 4.392-.006 4.392-4.152 0 0 .143-4.21-4.392-4.21M39.758 28.322c-.922 0-1.67-.785-1.67-1.753 0-.968.748-1.753 1.67-1.753.921 0 1.67.785 1.67 1.753 0 .968-.749 1.753-1.67 1.753zm1.553-5.687v.763s-.747-1.038-2.18-1.038c0 0-3.676-.163-3.676 4.18 0 0-.04 4.046 3.574 4.046 0 0 1.474.064 2.282-1.039v.637s.182 1.993-1.656 1.993h-.626v2.417h1.01s3.796.042 3.796-4.262v-7.697H41.31z"/>
        </g>
    </g>
</svg>
