<svg xmlns="http://www.w3.org/2000/svg" width="16" height="16" viewBox="0 0 16 16">
    <path fill="#555" fill-rule="evenodd" d="M5.851 6.787c.27-.57.444-.947.521-1.13.115-.275.262-.612-.13-1.216-.391-.603-1.014-1.447-1.344-1.879-.33-.43-.83-.826-1.353-.335-.523.492-1.205 1.32-1.366 1.624-.162.303-.305.87 0 1.62.304.75 1.268 2.776 3.772 5.149 2.504 2.373 4.578 3.201 5.386 3.335.809.134 1.1-.045 1.377-.343.276-.298.923-1.14 1.122-1.468.198-.327.311-1.01-.23-1.353-.542-.343-1.705-1.08-2.037-1.243-.332-.163-.67-.383-1.098-.122-.285.174-.65.426-1.096.754-.699-.47-1.34-.984-1.925-1.542S6.332 7.463 5.85 6.787z"/>
</svg>
