<svg xmlns="http://www.w3.org/2000/svg" width="48" height="48" viewBox="0 0 48 48">
    <g fill="none" fill-rule="evenodd">
        <path fill="#8BE0F8" d="M33.858 22.17L23 20.6v20h13.6V25.338c0-1.59-1.168-2.94-2.742-3.167z"/>
        <path fill="#00256C" d="M9.4 11.027L27 7.8v32.8H13.4c-2.21 0-4-1.79-4-4V11.027z"/>
        <g fill="#FFF">
            <path d="M0 0H2.261V2.261H0zM0 4.07H2.261V6.331H0zM4.07 0H6.331V2.261H4.07zM4.07 4.07H6.331V6.331H4.07zM8.139 0H10.399999999999999V2.261H8.139zM8.139 4.07H10.399999999999999V6.331H8.139zM0 8.139H2.261V10.399999999999999H0zM4.07 8.139H6.331V10.399999999999999H4.07zM8.139 8.139H10.399999999999999V10.399999999999999H8.139z" transform="translate(13.4 15)"/>
        </g>
    </g>
</svg>
