<svg xmlns="http://www.w3.org/2000/svg" width="48" height="48" viewBox="0 0 48 48">
    <g fill="none" fill-rule="evenodd" transform="translate(7.2 10)">
        <g>
            <path fill="#8BE0F8" d="M1.248 21.893h6.24V25.6c0 .442-.358.8-.8.8h-4.64c-.442 0-.8-.358-.8-.8v-3.707zM23.712 21.893h6.24V25.6c0 .442-.358.8-.8.8h-4.64c-.442 0-.8-.358-.8-.8v-3.707z" transform="translate(.8)"/>
            <path fill="#00256C" d="M1.863 9.688c1.38-3.636 2.43-6.222 3.15-7.76C5.662.536 7.678.645 16.048.645c8.675 0 9.597-.442 10.82 1.746.705 1.26 1.853 3.692 3.447 7.298L32 14.548v7.26c0 .441-.358.8-.8.8H.8c-.442 0-.8-.359-.8-.8v-7.26l1.863-4.86z" transform="translate(.8)"/>
        </g>
        <circle cx="7.2" cy="16" r="2.4" fill="#FFF"/>
        <circle cx="26.4" cy="16" r="2.4" fill="#FFF"/>
        <rect width="5.6" height="3.2" y="8.8" fill="#00256C" rx=".8"/>
        <rect width="5.6" height="3.2" x="28" y="8.8" fill="#00256C" rx=".8"/>
    </g>
</svg>
