<svg xmlns="http://www.w3.org/2000/svg" width="48" height="48" viewBox="0 0 48 48">
    <g fill="none" fill-rule="evenodd">
        <path fill="#8BE0F8" d="M3.875 5.142c-.243.331-.387.74-.387 1.182v12.103c0 1.104.896 2 2 2l23.237-.001v.028c.905.024 1.632.799 1.632 1.75 0 .916-.673 1.668-1.53 1.744l-.102.004v.003l-4.321-.001V24H2.524l.001-.043c-.136.028-.277.043-.421.043-.962 0-1.772-.657-2.024-1.554l-.038-.16H0V7.714h.042C.015 7.577 0 7.434 0 7.287c0-1.184.942-2.143 2.104-2.143.096 0 .19.006.283.02l.138.023v-.043z" transform="translate(8 10.805)"/>
        <path fill="#00256C" d="M31.2 19.286c-.732-.308-1.496-.462-2.294-.462H5.06V.43h24.205c1.07 0 1.936.885 1.936 1.978zm-21.397-.758V.428" transform="translate(8 10.805)"/>
    </g>
</svg>
