<svg xmlns="http://www.w3.org/2000/svg" width="48" height="48" viewBox="0 0 48 48">
    <g fill="none" fill-rule="evenodd">
        <g transform="translate(10.4 8.6) translate(0 3.394)">
            <circle cx="14" cy="14" r="14" fill="#00256C"/>
            <path fill="#FFF" fill-rule="nonzero" d="M14.019 9.616L12.264 9.616 12.264 15.736 18.384 15.736 18.384 14.142 14.019 14.142z"/>
        </g>
        <g fill="#8BE0F8">
            <path d="M5.93 0c1.792 0 3.399.821 4.486 2.12-4.082.915-7.59 3.259-9.924 6.451C.175 7.823 0 6.997 0 6.128 0 2.744 2.655 0 5.93 0zM21.221 0c-1.667 0-3.174.711-4.252 1.856 4.263.537 7.864 3.09 9.728 6.629.293-.726.455-1.522.455-2.357 0-3.384-2.656-6.128-5.93-6.128z" transform="translate(10.4 8.6)"/>
        </g>
    </g>
</svg>
