<svg xmlns="http://www.w3.org/2000/svg" xmlns:xlink="http://www.w3.org/1999/xlink" width="48" height="48" viewBox="0 0 48 48">
    <defs>
        <path id="prefix__a" d="M0.7 0.126L25.9 0.126 25.9 18.126 0.7 18.126z"/>
        <path id="prefix__c" d="M0.089 0.166L13.589 0.166 13.589 13.666 0.089 13.666z"/>
    </defs>
    <g fill="none" fill-rule="evenodd">
        <path d="M0 0H48V48H0z" opacity=".278"/>
        <g>
            <path fill="#00256C" d="M28.6 33.4H2c-1.105 0-2-.896-2-2v-8.6c0-1.105.895-2 2-2h26.6c1.104 0 2 .895 2 2v8.6c0 1.104-.896 2-2 2" transform="translate(6 5)"/>
            <g transform="translate(6 5) translate(2 .874)">
                <mask id="prefix__b" fill="#fff">
                    <use xlink:href="#prefix__a"/>
                </mask>
                <path fill="#00256C" d="M23.9 18.126H2.7c-1.105 0-2-.896-2-2v-8c0-4.418 3.582-8 8-8h9.2c4.418 0 8 3.582 8 8v8c0 1.104-.896 2-2 2" mask="url(#prefix__b)"/>
            </g>
            <path fill="#00256C" d="M20.739 37.874h-10.8c-.745 0-1.35-.604-1.35-1.35 0-.746.605-1.35 1.35-1.35h10.8c.746 0 1.35.604 1.35 1.35 0 .746-.604 1.35-1.35 1.35" transform="translate(6 5)"/>
            <g transform="translate(6 5) translate(22 23.874)">
                <mask id="prefix__d" fill="#fff">
                    <use xlink:href="#prefix__c"/>
                </mask>
                <path fill="#8BE0F8" d="M13.59 6.916c0 3.728-3.023 6.75-6.75 6.75-3.73 0-6.75-3.022-6.75-6.75S3.11.166 6.84.166c3.727 0 6.75 3.022 6.75 6.75" mask="url(#prefix__d)"/>
            </g>
            <path fill="#FFF" d="M25.689 30.79L28.839 27.442 31.989 30.79z" transform="translate(6 5)"/>
            <path stroke="#FFF" stroke-width="2.3" d="M28.839 33.707L28.839 30.039" transform="translate(6 5)"/>
        </g>
    </g>
</svg>
