<svg xmlns="http://www.w3.org/2000/svg" width="44" height="44" viewBox="0 0 44 44">
    <g fill="none" fill-rule="evenodd">
        <path d="M0 0H44V44H0z"/>
        <path fill="#FFF" d="M22 29.692c-4.25 0-7.692-3.444-7.692-7.692 0-4.25 3.443-7.692 7.692-7.692 4.25 0 7.692 3.443 7.692 7.692 0 4.248-3.443 7.692-7.692 7.692zm0-18.461c-5.937 0-10.77 4.832-10.77 10.769S16.064 32.77 22 32.77c5.937 0 10.77-4.833 10.77-10.77 0-5.937-4.833-10.77-10.77-10.77zM22 2c-.85 0-1.538.69-1.538 1.538v3.077c0 .85.689 1.539 1.538 1.539.85 0 1.538-.69 1.538-1.539V3.538C23.538 2.69 22.85 2 22 2M22 35.846c-.85 0-1.538.69-1.538 1.539v3.077C20.462 41.31 21.15 42 22 42c.85 0 1.538-.69 1.538-1.538v-3.077c0-.85-.689-1.539-1.538-1.539M36.14 7.857c-.6-.6-1.574-.6-2.175 0l-2.175 2.176c-.601.6-.601 1.574 0 2.175.6.601 1.574.601 2.175 0l2.176-2.175c.6-.601.6-1.575 0-2.176M12.21 31.792c-.6-.601-1.574-.603-2.175 0l-2.176 2.175c-.6.601-.6 1.575 0 2.176.602.6 1.575.6 2.176 0l2.175-2.176c.601-.603.601-1.574 0-2.175M2 22c0 .85.69 1.538 1.538 1.538h3.077c.85 0 1.539-.689 1.539-1.538 0-.85-.69-1.538-1.539-1.538H3.538C2.69 20.462 2 21.15 2 22M35.846 22c0 .85.69 1.538 1.539 1.538h3.077C41.31 23.538 42 22.85 42 22c0-.85-.69-1.538-1.538-1.538h-3.077c-.85 0-1.539.689-1.539 1.538M7.857 7.857c-.6.601-.6 1.575 0 2.176l2.176 2.175c.6.601 1.574.601 2.175 0 .601-.6.601-1.574 0-2.175l-2.175-2.176c-.601-.6-1.575-.6-2.176 0M31.792 31.79c-.601.6-.603 1.574 0 2.175l2.175 2.176c.601.6 1.575.6 2.176 0 .6-.602.6-1.575 0-2.176l-2.176-2.175c-.603-.601-1.574-.601-2.175 0"/>
    </g>
</svg>
